<svg width="649" height="333" viewBox="0 0 649 333" fill="none" xmlns="http://www.w3.org/2000/svg">
  <path d="M0.503685 0.99999V-1.04904e-05H-0.496315V0.99999H0.503685ZM0.503685 155H-0.496315V156H0.503685V155ZM53.3037 155V156H54.3037V155H53.3037ZM53.3037 133.66H54.3037V132.66H53.3037V133.66ZM24.0437 133.66H23.0437V134.66H24.0437V133.66ZM24.0437 87.24V86.24H23.0437V87.24H24.0437ZM51.7637 87.24V88.24H52.7637V87.24H51.7637ZM51.7637 65.9H52.7637V64.9H51.7637V65.9ZM24.0437 65.9H23.0437V66.9H24.0437V65.9ZM24.0437 22.34V21.34H23.0437V22.34H24.0437ZM52.8637 22.34V23.34H53.8637V22.34H52.8637ZM52.8637 0.99999H53.8637V-1.04904e-05H52.8637V0.99999ZM-0.496315 0.99999V155H1.50368V0.99999H-0.496315ZM0.503685 156H53.3037V154H0.503685V156ZM54.3037 155V133.66H52.3037V155H54.3037ZM53.3037 132.66H24.0437V134.66H53.3037V132.66ZM25.0437 133.66V87.24H23.0437V133.66H25.0437ZM24.0437 88.24H51.7637V86.24H24.0437V88.24ZM52.7637 87.24V65.9H50.7637V87.24H52.7637ZM51.7637 64.9H24.0437V66.9H51.7637V64.9ZM25.0437 65.9V22.34H23.0437V65.9H25.0437ZM24.0437 23.34H52.8637V21.34H24.0437V23.34ZM53.8637 22.34V0.99999H51.8637V22.34H53.8637ZM52.8637 -1.04904e-05H0.503685V1.99999H52.8637V-1.04904e-05ZM107.412 114.52L106.419 114.643H108.404L107.412 114.52ZM93.3317 0.99999L94.3241 0.876902L94.2153 -1.04904e-05H93.3317V0.99999ZM69.5717 0.99999V-1.04904e-05H68.414L68.5823 1.14536L69.5717 0.99999ZM92.2317 155.22L91.2423 155.365L91.3679 156.22H92.2317V155.22ZM121.052 155.22V156.22H121.915L122.041 155.365L121.052 155.22ZM143.712 0.99999L144.701 1.14536L144.869 -1.04904e-05H143.712V0.99999ZM121.492 0.99999V-1.04904e-05H120.608L120.499 0.876902L121.492 0.99999ZM108.404 114.397L94.3241 0.876902L92.3393 1.12308L106.419 114.643L108.404 114.397ZM93.3317 -1.04904e-05H69.5717V1.99999H93.3317V-1.04904e-05ZM68.5823 1.14536L91.2423 155.365L93.221 155.075L70.561 0.854617L68.5823 1.14536ZM92.2317 156.22H121.052V154.22H92.2317V156.22ZM122.041 155.365L144.701 1.14536L142.722 0.854617L120.062 155.075L122.041 155.365ZM143.712 -1.04904e-05H121.492V1.99999H143.712V-1.04904e-05ZM120.499 0.876902L106.419 114.397L108.404 114.643L122.484 1.12308L120.499 0.876902ZM162.264 0.99999V-1.04904e-05H161.264V0.99999H162.264ZM162.264 155H161.264V156H162.264V155ZM215.064 155V156H216.064V155H215.064ZM215.064 133.66H216.064V132.66H215.064V133.66ZM185.804 133.66H184.804V134.66H185.804V133.66ZM185.804 87.24V86.24H184.804V87.24H185.804ZM213.524 87.24V88.24H214.524V87.24H213.524ZM213.524 65.9H214.524V64.9H213.524V65.9ZM185.804 65.9H184.804V66.9H185.804V65.9ZM185.804 22.34V21.34H184.804V22.34H185.804ZM214.624 22.34V23.34H215.624V22.34H214.624ZM214.624 0.99999H215.624V-1.04904e-05H214.624V0.99999ZM161.264 0.99999V155H163.264V0.99999H161.264ZM162.264 156H215.064V154H162.264V156ZM216.064 155V133.66H214.064V155H216.064ZM215.064 132.66H185.804V134.66H215.064V132.66ZM186.804 133.66V87.24H184.804V133.66H186.804ZM185.804 88.24H213.524V86.24H185.804V88.24ZM214.524 87.24V65.9H212.524V87.24H214.524ZM213.524 64.9H185.804V66.9H213.524V64.9ZM186.804 65.9V22.34H184.804V65.9H186.804ZM185.804 23.34H214.624V21.34H185.804V23.34ZM215.624 22.34V0.99999H213.624V22.34H215.624ZM214.624 -1.04904e-05H162.264V1.99999H214.624V-1.04904e-05ZM290.276 82.4L289.897 81.4748L287.176 82.591L290.013 83.3648L290.276 82.4ZM236.376 0.99999V-1.04904e-05H235.376V0.99999H236.376ZM236.376 155H235.376V156H236.376V155ZM259.916 155V156H260.916V155H259.916ZM259.916 93.18V92.18H258.916V93.18H259.916ZM280.376 155H279.376V156H280.376V155ZM303.916 155V156H304.916V155H303.916ZM259.916 72.72H258.916V73.72H259.916V72.72ZM259.916 21.9V20.9H258.916V21.9H259.916ZM290.656 83.3252C295.097 81.5032 298.643 78.8498 301.061 74.8304C303.468 70.8281 304.696 65.5699 304.696 58.64H302.696C302.696 65.3501 301.505 70.2119 299.347 73.7996C297.199 77.3702 294.036 79.7768 289.897 81.4748L290.656 83.3252ZM304.696 58.64V29.6H302.696V58.64H304.696ZM304.696 29.6C304.696 19.8788 302.294 12.428 297.281 7.41539C292.268 2.40275 284.818 -1.04904e-05 275.096 -1.04904e-05V1.99999C284.515 1.99999 291.364 4.32723 295.867 8.8296C300.369 13.332 302.696 20.1812 302.696 29.6H304.696ZM275.096 -1.04904e-05H236.376V1.99999H275.096V-1.04904e-05ZM235.376 0.99999V155H237.376V0.99999H235.376ZM236.376 156H259.916V154H236.376V156ZM260.916 155V93.18H258.916V155H260.916ZM259.916 94.18H270.476V92.18H259.916V94.18ZM270.476 94.18C273.758 94.18 275.92 94.9231 277.277 96.2796C278.633 97.6361 279.376 99.7986 279.376 103.08H281.376C281.376 99.5414 280.579 96.7539 278.691 94.8654C276.802 92.9769 274.015 92.18 270.476 92.18V94.18ZM279.376 103.08V155H281.376V103.08H279.376ZM280.376 156H303.916V154H280.376V156ZM304.916 155V102.64H302.916V155H304.916ZM304.916 102.64C304.916 96.7141 303.913 92.0856 301.556 88.5796C299.183 85.0501 295.534 82.7973 290.539 81.4352L290.013 83.3648C294.699 84.6427 297.869 86.6799 299.896 89.6954C301.939 92.7344 302.916 96.9059 302.916 102.64H304.916ZM279.156 30.7V63.26H281.156V30.7H279.156ZM279.156 63.26C279.156 66.3047 278.421 68.3613 277.09 69.6693C275.756 70.9807 273.639 71.72 270.476 71.72V73.72C273.913 73.72 276.637 72.9193 278.492 71.0957C280.351 69.2687 281.156 66.5952 281.156 63.26H279.156ZM270.476 71.72H259.916V73.72H270.476V71.72ZM260.916 72.72V21.9H258.916V72.72H260.916ZM259.916 22.9H271.356V20.9H259.916V22.9ZM271.356 22.9C274.182 22.9 276.078 23.5805 277.277 24.7796C278.476 25.9787 279.156 27.8746 279.156 30.7H281.156C281.156 27.5854 280.407 25.0813 278.691 23.3654C276.975 21.6495 274.471 20.9 271.356 20.9V22.9ZM355.914 65.9L354.934 66.1025L356.892 66.1088L355.914 65.9ZM342.494 0.99999L343.473 0.797494L343.308 -1.04904e-05H342.494V0.99999ZM318.294 0.99999V-1.04904e-05H317.013L317.324 1.24253L318.294 0.99999ZM343.594 102.2H344.594V102.077L344.564 101.957L343.594 102.2ZM343.594 155H342.594V156H343.594V155ZM367.134 155V156H368.134V155H367.134ZM367.134 101.1L366.164 100.855L366.134 100.976V101.1H367.134ZM392.434 0.99999L393.403 1.24503L393.718 -1.04904e-05H392.434V0.99999ZM369.774 0.99999V-1.04904e-05H368.965L368.796 0.79114L369.774 0.99999ZM356.893 65.6975L343.473 0.797494L341.514 1.20249L354.934 66.1025L356.893 65.6975ZM342.494 -1.04904e-05H318.294V1.99999H342.494V-1.04904e-05ZM317.324 1.24253L342.624 102.443L344.564 101.957L319.264 0.757454L317.324 1.24253ZM342.594 102.2V155H344.594V102.2H342.594ZM343.594 156H367.134V154H343.594V156ZM368.134 155V101.1H366.134V155H368.134ZM368.103 101.345L393.403 1.24503L391.464 0.754948L366.164 100.855L368.103 101.345ZM392.434 -1.04904e-05H369.774V1.99999H392.434V-1.04904e-05ZM368.796 0.79114L354.936 65.6911L356.892 66.1088L370.752 1.20884L368.796 0.79114ZM409.094 155H408.094V156H409.094V155ZM409.094 0.99999V-1.04904e-05H408.094V0.99999H409.094ZM432.634 21.68V20.68H431.634V21.68H432.634ZM432.634 134.32H431.634V135.32H432.634V134.32ZM409.094 156H444.514V154H409.094V156ZM444.514 156C456.098 156 464.818 153.216 470.632 147.373C476.445 141.531 479.174 132.812 479.174 121.34H477.174C477.174 132.528 474.512 140.639 469.215 145.962C463.919 151.284 455.809 154 444.514 154V156ZM479.174 121.34V34.66H477.174V121.34H479.174ZM479.174 34.66C479.174 23.1883 476.445 14.469 470.632 8.62713C464.818 2.78433 456.098 -1.04904e-05 444.514 -1.04904e-05V1.99999C455.809 1.99999 463.919 4.71565 469.215 10.0378C474.512 15.361 477.174 23.4717 477.174 34.66H479.174ZM444.514 -1.04904e-05H409.094V1.99999H444.514V-1.04904e-05ZM408.094 0.99999V155H410.094V0.99999H408.094ZM432.634 22.68H441.214V20.68H432.634V22.68ZM441.214 22.68C445.692 22.68 448.735 23.7468 450.673 25.7333C452.616 27.7249 453.634 30.8295 453.634 35.32H455.634C455.634 30.5705 454.561 26.8551 452.104 24.3367C449.642 21.8132 445.975 20.68 441.214 20.68V22.68ZM453.634 35.32V120.68H455.634V35.32H453.634ZM453.634 120.68C453.634 125.171 452.616 128.275 450.673 130.267C448.735 132.253 445.692 133.32 441.214 133.32V135.32C445.975 135.32 449.642 134.187 452.104 131.663C454.561 129.145 455.634 125.429 455.634 120.68H453.634ZM441.214 133.32H432.634V135.32H441.214V133.32ZM433.634 134.32V21.68H431.634V134.32H433.634ZM547.73 0.779992L548.719 0.637385L548.596 -0.220008H547.73V0.779992ZM516.49 0.779992V-0.220008H515.622L515.5 0.638769L516.49 0.779992ZM494.49 155L493.5 154.859L493.337 156H494.49V155ZM516.27 155V156H517.158L517.263 155.117L516.27 155ZM519.13 130.8V129.8H518.241L518.137 130.683L519.13 130.8ZM543.55 130.8L544.542 130.674L544.43 129.8H543.55V130.8ZM546.63 155L545.638 155.126L545.749 156H546.63V155ZM569.95 155V156H571.104L570.939 154.857L569.95 155ZM531.45 32.9L532.442 32.7781L530.457 32.7753L531.45 32.9ZM540.91 109.9V110.9H542.04L541.902 109.778L540.91 109.9ZM521.77 109.9L520.777 109.775L520.636 110.9H521.77V109.9ZM547.73 -0.220008H516.49V1.77999H547.73V-0.220008ZM515.5 0.638769L493.5 154.859L495.48 155.141L517.48 0.921216L515.5 0.638769ZM494.49 156H516.27V154H494.49V156ZM517.263 155.117L520.123 130.917L518.137 130.683L515.277 154.883L517.263 155.117ZM519.13 131.8H543.55V129.8H519.13V131.8ZM542.558 130.926L545.638 155.126L547.622 154.874L544.542 130.674L542.558 130.926ZM546.63 156H569.95V154H546.63V156ZM570.939 154.857L548.719 0.637385L546.74 0.9226L568.96 155.143L570.939 154.857ZM530.457 33.0219L539.917 110.022L541.902 109.778L532.442 32.7781L530.457 33.0219ZM540.91 108.9H521.77V110.9H540.91V108.9ZM522.762 110.025L532.442 33.0247L530.457 32.7753L520.777 109.775L522.762 110.025ZM612.196 65.9L611.217 66.1025L613.174 66.1088L612.196 65.9ZM598.776 0.99999L599.756 0.797494L599.591 -1.04904e-05H598.776V0.99999ZM574.576 0.99999V-1.04904e-05H573.296L573.606 1.24253L574.576 0.99999ZM599.876 102.2H600.876V102.077L600.847 101.957L599.876 102.2ZM599.876 155H598.876V156H599.876V155ZM623.417 155V156H624.417V155H623.417ZM623.417 101.1L622.447 100.855L622.417 100.976V101.1H623.417ZM648.716 0.99999L649.686 1.24503L650.001 -1.04904e-05H648.716V0.99999ZM626.056 0.99999V-1.04904e-05H625.247L625.079 0.79114L626.056 0.99999ZM613.176 65.6975L599.756 0.797494L597.797 1.20249L611.217 66.1025L613.176 65.6975ZM598.776 -1.04904e-05H574.576V1.99999H598.776V-1.04904e-05ZM573.606 1.24253L598.906 102.443L600.847 101.957L575.547 0.757454L573.606 1.24253ZM598.876 102.2V155H600.876V102.2H598.876ZM599.876 156H623.417V154H599.876V156ZM624.417 155V101.1H622.417V155H624.417ZM624.386 101.345L649.686 1.24503L647.747 0.754948L622.447 100.855L624.386 101.345ZM648.716 -1.04904e-05H626.056V1.99999H648.716V-1.04904e-05ZM625.079 0.79114L611.219 65.6911L613.174 66.1088L627.034 1.20884L625.079 0.79114ZM27.0326 177V176H26.0326V177H27.0326ZM27.0326 331H26.0326V332H27.0326V331ZM50.5726 331V332H51.5726V331H50.5726ZM50.5726 264.12V263.12H49.5726V264.12H50.5726ZM77.1926 264.12V265.12H78.1926V264.12H77.1926ZM77.1926 242.78H78.1926V241.78H77.1926V242.78ZM50.5726 242.78H49.5726V243.78H50.5726V242.78ZM50.5726 198.34V197.34H49.5726V198.34H50.5726ZM78.2926 198.34V199.34H79.2926V198.34H78.2926ZM78.2926 177H79.2926V176H78.2926V177ZM26.0326 177V331H28.0326V177H26.0326ZM27.0326 332H50.5726V330H27.0326V332ZM51.5726 331V264.12H49.5726V331H51.5726ZM50.5726 265.12H77.1926V263.12H50.5726V265.12ZM78.1926 264.12V242.78H76.1926V264.12H78.1926ZM77.1926 241.78H50.5726V243.78H77.1926V241.78ZM51.5726 242.78V198.34H49.5726V242.78H51.5726ZM50.5726 199.34H78.2926V197.34H50.5726V199.34ZM79.2926 198.34V177H77.2926V198.34H79.2926ZM78.2926 176H27.0326V178H78.2926V176ZM98.7818 177V176H97.7818V177H98.7818ZM98.7818 331H97.7818V332H98.7818V331ZM148.282 331V332H149.282V331H148.282ZM148.282 309.66H149.282V308.66H148.282V309.66ZM122.322 309.66H121.322V310.66H122.322V309.66ZM122.322 177H123.322V176H122.322V177ZM97.7818 177V331H99.7818V177H97.7818ZM98.7818 332H148.282V330H98.7818V332ZM149.282 331V309.66H147.282V331H149.282ZM148.282 308.66H122.322V310.66H148.282V308.66ZM123.322 309.66V177H121.322V309.66H123.322ZM122.322 176H98.7818V178H122.322V176ZM236.534 303.72V204.28H234.534V303.72H236.534ZM236.534 204.28C236.534 194.559 234.131 187.108 229.119 182.095C224.106 177.083 216.655 174.68 206.934 174.68V176.68C216.353 176.68 223.202 179.007 227.705 183.51C232.207 188.012 234.534 194.861 234.534 204.28H236.534ZM206.934 174.68H194.394V176.68H206.934V174.68ZM194.394 174.68C184.673 174.68 177.222 177.083 172.21 182.095C167.197 187.108 164.794 194.559 164.794 204.28H166.794C166.794 194.861 169.121 188.012 173.624 183.51C178.126 179.007 184.975 176.68 194.394 176.68V174.68ZM164.794 204.28V303.72H166.794V204.28H164.794ZM164.794 303.72C164.794 313.441 167.197 320.892 172.21 325.905C177.222 330.917 184.673 333.32 194.394 333.32V331.32C184.975 331.32 178.126 328.993 173.624 324.49C169.121 319.988 166.794 313.139 166.794 303.72H164.794ZM194.394 333.32H206.934V331.32H194.394V333.32ZM206.934 333.32C216.655 333.32 224.106 330.917 229.119 325.905C234.131 320.892 236.534 313.441 236.534 303.72H234.534C234.534 313.139 232.207 319.988 227.705 324.49C223.202 328.993 216.353 331.32 206.934 331.32V333.32ZM210.994 205.38V302.62H212.994V205.38H210.994ZM210.994 302.62C210.994 305.564 210.309 307.516 209.108 308.74C207.91 309.96 206.02 310.64 203.194 310.64V312.64C206.309 312.64 208.818 311.89 210.535 310.14C212.249 308.394 212.994 305.836 212.994 302.62H210.994ZM203.194 310.64H198.354V312.64H203.194V310.64ZM198.354 310.64C195.41 310.64 193.464 309.955 192.241 308.733C191.019 307.511 190.334 305.565 190.334 302.62H188.334C188.334 305.835 189.079 308.399 190.827 310.147C192.575 311.895 195.139 312.64 198.354 312.64V310.64ZM190.334 302.62V205.38H188.334V302.62H190.334ZM190.334 205.38C190.334 202.435 191.019 200.489 192.241 199.267C193.464 198.045 195.41 197.36 198.354 197.36V195.36C195.139 195.36 192.575 196.105 190.827 197.853C189.079 199.601 188.334 202.165 188.334 205.38H190.334ZM198.354 197.36H203.194V195.36H198.354V197.36ZM203.194 197.36C206.02 197.36 207.91 198.04 209.108 199.26C210.309 200.484 210.994 202.436 210.994 205.38H212.994C212.994 202.164 212.249 199.606 210.535 197.86C208.818 196.11 206.309 195.36 203.194 195.36V197.36ZM271.645 331L270.652 331.121L270.759 332H271.645V331ZM299.585 331V332H300.479L300.579 331.111L299.585 331ZM309.925 238.82L310.919 238.709H308.931L309.925 238.82ZM320.265 331L319.271 331.111L319.371 332H320.265V331ZM347.985 331V332H348.871L348.978 331.121L347.985 331ZM366.685 177L367.678 177.121L367.814 176H366.685V177ZM345.125 177V176H344.221L344.13 176.899L345.125 177ZM334.125 285.46L333.131 285.569L335.12 285.561L334.125 285.46ZM322.245 177L323.239 176.891L323.142 176H322.245V177ZM299.585 177V176H298.688L298.591 176.891L299.585 177ZM287.705 285.68L286.71 285.781L288.699 285.789L287.705 285.68ZM276.705 177L277.7 176.899L277.609 176H276.705V177ZM252.945 177V176H251.816L251.952 177.121L252.945 177ZM271.645 332H299.585V330H271.645V332ZM300.579 331.111L310.919 238.931L308.931 238.709L298.591 330.889L300.579 331.111ZM308.931 238.931L319.271 331.111L321.259 330.889L310.919 238.709L308.931 238.931ZM320.265 332H347.985V330H320.265V332ZM348.978 331.121L367.678 177.121L365.692 176.879L346.992 330.879L348.978 331.121ZM366.685 176H345.125V178H366.685V176ZM344.13 176.899L333.13 285.359L335.12 285.561L346.12 177.101L344.13 176.899ZM335.119 285.351L323.239 176.891L321.251 177.109L333.131 285.569L335.119 285.351ZM322.245 176H299.585V178H322.245V176ZM298.591 176.891L286.711 285.571L288.699 285.789L300.579 177.109L298.591 176.891ZM288.7 285.579L277.7 176.899L275.71 177.101L286.71 285.781L288.7 285.579ZM276.705 176H252.945V178H276.705V176ZM251.952 177.121L270.652 331.121L272.638 330.879L253.938 176.879L251.952 177.121ZM386.432 177V176H385.432V177H386.432ZM386.432 331H385.432V332H386.432V331ZM439.232 331V332H440.232V331H439.232ZM439.232 309.66H440.232V308.66H439.232V309.66ZM409.972 309.66H408.972V310.66H409.972V309.66ZM409.972 263.24V262.24H408.972V263.24H409.972ZM437.692 263.24V264.24H438.692V263.24H437.692ZM437.692 241.9H438.692V240.9H437.692V241.9ZM409.972 241.9H408.972V242.9H409.972V241.9ZM409.972 198.34V197.34H408.972V198.34H409.972ZM438.792 198.34V199.34H439.792V198.34H438.792ZM438.792 177H439.792V176H438.792V177ZM385.432 177V331H387.432V177H385.432ZM386.432 332H439.232V330H386.432V332ZM440.232 331V309.66H438.232V331H440.232ZM439.232 308.66H409.972V310.66H439.232V308.66ZM410.972 309.66V263.24H408.972V309.66H410.972ZM409.972 264.24H437.692V262.24H409.972V264.24ZM438.692 263.24V241.9H436.692V263.24H438.692ZM437.692 240.9H409.972V242.9H437.692V240.9ZM410.972 241.9V198.34H408.972V241.9H410.972ZM409.972 199.34H438.792V197.34H409.972V199.34ZM439.792 198.34V177H437.792V198.34H439.792ZM438.792 176H386.432V178H438.792V176ZM514.444 258.4L514.065 257.475L511.344 258.591L514.181 259.365L514.444 258.4ZM460.544 177V176H459.544V177H460.544ZM460.544 331H459.544V332H460.544V331ZM484.084 331V332H485.084V331H484.084ZM484.084 269.18V268.18H483.084V269.18H484.084ZM504.544 331H503.544V332H504.544V331ZM528.084 331V332H529.084V331H528.084ZM484.084 248.72H483.084V249.72H484.084V248.72ZM484.084 197.9V196.9H483.084V197.9H484.084ZM514.824 259.325C519.265 257.503 522.811 254.85 525.229 250.83C527.636 246.828 528.864 241.57 528.864 234.64H526.864C526.864 241.35 525.673 246.212 523.515 249.8C521.367 253.37 518.204 255.777 514.065 257.475L514.824 259.325ZM528.864 234.64V205.6H526.864V234.64H528.864ZM528.864 205.6C528.864 195.879 526.462 188.428 521.449 183.415C516.436 178.403 508.986 176 499.264 176V178C508.683 178 515.532 180.327 520.035 184.83C524.537 189.332 526.864 196.181 526.864 205.6H528.864ZM499.264 176H460.544V178H499.264V176ZM459.544 177V331H461.544V177H459.544ZM460.544 332H484.084V330H460.544V332ZM485.084 331V269.18H483.084V331H485.084ZM484.084 270.18H494.644V268.18H484.084V270.18ZM494.644 270.18C497.926 270.18 500.088 270.923 501.445 272.28C502.801 273.636 503.544 275.799 503.544 279.08H505.544C505.544 275.541 504.747 272.754 502.859 270.865C500.97 268.977 498.183 268.18 494.644 268.18V270.18ZM503.544 279.08V331H505.544V279.08H503.544ZM504.544 332H528.084V330H504.544V332ZM529.084 331V278.64H527.084V331H529.084ZM529.084 278.64C529.084 272.714 528.081 268.086 525.724 264.58C523.351 261.05 519.702 258.797 514.707 257.435L514.181 259.365C518.867 260.643 522.037 262.68 524.064 265.695C526.107 268.734 527.084 272.906 527.084 278.64H529.084ZM503.324 206.7V239.26H505.324V206.7H503.324ZM503.324 239.26C503.324 242.305 502.589 244.361 501.258 245.669C499.924 246.981 497.807 247.72 494.644 247.72V249.72C498.081 249.72 500.805 248.919 502.66 247.096C504.519 245.269 505.324 242.595 505.324 239.26H503.324ZM494.644 247.72H484.084V249.72H494.644V247.72ZM485.084 248.72V197.9H483.084V248.72H485.084ZM484.084 198.9H495.524V196.9H484.084V198.9ZM495.524 198.9C498.35 198.9 500.246 199.58 501.445 200.78C502.644 201.979 503.324 203.875 503.324 206.7H505.324C505.324 203.585 504.575 201.081 502.859 199.365C501.143 197.65 498.639 196.9 495.524 196.9V198.9ZM603.575 252.02L602.985 252.827L602.989 252.83L603.575 252.02ZM579.815 234.64L580.406 233.833L580.397 233.827L580.389 233.821L579.815 234.64ZM593.675 232H592.675V233H593.675V232ZM616.775 232V233H617.775V232H616.775ZM563.535 252.02L564.126 251.213L564.12 251.208L564.113 251.204L563.535 252.02ZM587.295 269.4L587.895 268.6L587.886 268.593L587.295 269.4ZM572.775 271.38H573.775V270.38H572.775V271.38ZM549.895 271.38V270.38H548.895V271.38H549.895ZM604.166 251.213L580.406 233.833L579.225 235.447L602.985 252.827L604.166 251.213ZM580.389 233.821C578.248 232.322 576.733 230.885 575.737 229.117C574.744 227.356 574.215 225.173 574.215 222.1H572.215C572.215 225.407 572.786 227.954 573.994 230.098C575.198 232.235 576.983 233.878 579.242 235.459L580.389 233.821ZM574.215 222.1V204.94H572.215V222.1H574.215ZM574.215 204.94C574.215 202.115 574.896 200.219 576.095 199.02C577.294 197.82 579.19 197.14 582.015 197.14V195.14C578.901 195.14 576.397 195.89 574.681 197.605C572.965 199.321 572.215 201.825 572.215 204.94H574.215ZM582.015 197.14H584.875V195.14H582.015V197.14ZM584.875 197.14C587.701 197.14 589.597 197.82 590.796 199.02C591.995 200.219 592.675 202.115 592.675 204.94H594.675C594.675 201.825 593.926 199.321 592.21 197.605C590.494 195.89 587.99 195.14 584.875 195.14V197.14ZM592.675 204.94V232H594.675V204.94H592.675ZM593.675 233H616.775V231H593.675V233ZM617.775 232V204.06H615.775V232H617.775ZM617.775 204.06C617.775 194.446 615.371 187.052 610.387 182.068C605.404 177.084 598.009 174.68 588.395 174.68V176.68C597.701 176.68 604.497 179.006 608.973 183.482C613.449 187.958 615.775 194.754 615.775 204.06H617.775ZM588.395 174.68H578.495V176.68H588.395V174.68ZM578.495 174.68C568.774 174.68 561.323 177.083 556.311 182.095C551.298 187.108 548.895 194.559 548.895 204.28H550.895C550.895 194.861 553.222 188.012 557.725 183.51C562.227 179.007 569.076 176.68 578.495 176.68V174.68ZM548.895 204.28V225.4H550.895V204.28H548.895ZM548.895 225.4C548.895 231.422 549.675 236.378 551.859 240.803C554.044 245.232 557.59 249.034 562.957 252.836L564.113 251.204C558.921 247.526 555.646 243.958 553.652 239.917C551.656 235.872 550.895 231.258 550.895 225.4H548.895ZM562.945 252.827L586.705 270.207L587.886 268.593L564.126 251.213L562.945 252.827ZM586.695 270.2C588.858 271.822 590.378 273.264 591.377 275.011C592.367 276.743 592.895 278.869 592.895 281.94H594.895C594.895 278.631 594.324 276.137 593.114 274.019C591.912 271.916 590.132 270.278 587.895 268.6L586.695 270.2ZM592.895 281.94V303.06H594.895V281.94H592.895ZM592.895 303.06C592.895 305.885 592.215 307.776 590.995 308.974C589.771 310.175 587.82 310.86 584.875 310.86V312.86C588.091 312.86 590.65 312.115 592.396 310.401C594.146 308.684 594.895 306.175 594.895 303.06H592.895ZM584.875 310.86H581.795V312.86H584.875V310.86ZM581.795 310.86C578.851 310.86 576.9 310.175 575.676 308.974C574.456 307.776 573.775 305.885 573.775 303.06H571.775C571.775 306.175 572.525 308.684 574.275 310.401C576.021 312.115 578.58 312.86 581.795 312.86V310.86ZM573.775 303.06V271.38H571.775V303.06H573.775ZM572.775 270.38H549.895V272.38H572.775V270.38ZM548.895 271.38V303.94H550.895V271.38H548.895ZM548.895 303.94C548.895 313.548 551.242 320.944 556.199 325.93C561.157 330.917 568.554 333.32 578.275 333.32V331.32C568.856 331.32 562.064 328.993 557.617 324.52C553.169 320.046 550.895 313.252 550.895 303.94H548.895ZM578.275 333.32H588.615V331.32H578.275V333.32ZM588.615 333.32C598.336 333.32 605.787 330.917 610.8 325.905C615.812 320.892 618.215 313.441 618.215 303.72H616.215C616.215 313.139 613.888 319.988 609.386 324.49C604.883 328.993 598.034 331.32 588.615 331.32V333.32ZM618.215 303.72V278.64H616.215V303.72H618.215ZM618.215 278.64C618.215 272.287 617.38 267.326 615.164 262.978C612.947 258.631 609.4 254.999 604.161 251.21L602.989 252.83C608.091 256.521 611.364 259.929 613.382 263.887C615.4 267.844 616.215 272.453 616.215 278.64H618.215Z" fill="white"/>
</svg>
