<svg width="512" height="333" viewBox="0 0 512 333" fill="none" xmlns="http://www.w3.org/2000/svg">
  <path d="M-64.4963 0.99999V155H-11.6963V133.66H-40.9563V87.24H-13.2363V65.9H-40.9563V22.34H-12.1363V0.99999H-64.4963ZM42.4117 114.52L28.3317 0.99999H4.57166L27.2317 155.22H56.0517L78.7117 0.99999H56.4917L42.4117 114.52ZM97.2638 0.99999V155H150.064V133.66H120.804V87.24H148.524V65.9H120.804V22.34H149.624V0.99999H97.2638ZM225.276 82.4C233.856 78.88 238.696 72.28 238.696 58.64V29.6C238.696 10.46 229.236 0.99999 210.096 0.99999H171.376V155H194.916V93.18H205.476C212.296 93.18 215.376 96.26 215.376 103.08V155H238.916V102.64C238.916 90.98 234.956 85.04 225.276 82.4ZM215.156 30.7V63.26C215.156 69.64 212.076 72.72 205.476 72.72H194.916V21.9H206.356C212.296 21.9 215.156 24.76 215.156 30.7ZM290.914 65.9L277.494 0.99999H253.294L278.594 102.2V155H302.134V101.1L327.434 0.99999H304.774L290.914 65.9ZM344.094 155H379.514C402.394 155 413.174 144 413.174 121.34V34.66C413.174 12 402.394 0.99999 379.514 0.99999H344.094V155ZM367.634 21.68H376.214C385.454 21.68 389.634 26.08 389.634 35.32V120.68C389.634 129.92 385.454 134.32 376.214 134.32H367.634V21.68ZM482.73 0.779992H451.49L429.49 155H451.27L454.13 130.8H478.55L481.63 155H504.95L482.73 0.779992ZM466.45 32.9L475.91 109.9H456.77L466.45 32.9ZM547.196 65.9L533.776 0.99999H509.576L534.876 102.2V155H558.416V101.1L583.716 0.99999H561.056L547.196 65.9ZM-37.9674 177V331H-14.4274V264.12H12.1926V242.78H-14.4274V198.34H13.2926V177H-37.9674ZM33.7818 177V331H83.2818V309.66H57.3218V177H33.7818ZM170.534 303.72V204.28C170.534 185.14 161.074 175.68 141.934 175.68H129.394C110.254 175.68 100.794 185.14 100.794 204.28V303.72C100.794 322.86 110.254 332.32 129.394 332.32H141.934C161.074 332.32 170.534 322.86 170.534 303.72ZM146.994 205.38V302.62C146.994 308.78 144.134 311.64 138.194 311.64H133.354C127.194 311.64 124.334 308.78 124.334 302.62V205.38C124.334 199.22 127.194 196.36 133.354 196.36H138.194C144.134 196.36 146.994 199.22 146.994 205.38ZM206.645 331H234.585L244.925 238.82L255.265 331H282.985L301.685 177H280.125L269.125 285.46L257.245 177H234.585L222.705 285.68L211.705 177H187.945L206.645 331ZM321.432 177V331H374.232V309.66H344.972V263.24H372.692V241.9H344.972V198.34H373.792V177H321.432ZM449.444 258.4C458.024 254.88 462.864 248.28 462.864 234.64V205.6C462.864 186.46 453.404 177 434.264 177H395.544V331H419.084V269.18H429.644C436.464 269.18 439.544 272.26 439.544 279.08V331H463.084V278.64C463.084 266.98 459.124 261.04 449.444 258.4ZM439.324 206.7V239.26C439.324 245.64 436.244 248.72 429.644 248.72H419.084V197.9H430.524C436.464 197.9 439.324 200.76 439.324 206.7ZM538.575 252.02L514.815 234.64C510.415 231.56 508.215 228.48 508.215 222.1V204.94C508.215 199 511.075 196.14 517.015 196.14H519.875C525.815 196.14 528.675 199 528.675 204.94V232H551.775V204.06C551.775 185.14 542.315 175.68 523.395 175.68H513.495C494.355 175.68 484.895 185.14 484.895 204.28V225.4C484.895 237.28 487.975 244.54 498.535 252.02L522.295 269.4C526.695 272.7 528.895 275.56 528.895 281.94V303.06C528.895 309 526.035 311.86 519.875 311.86H516.795C510.635 311.86 507.775 309 507.775 303.06V271.38H484.895V303.94C484.895 322.86 494.135 332.32 513.275 332.32H523.615C542.755 332.32 552.215 322.86 552.215 303.72V278.64C552.215 266.1 548.915 259.5 538.575 252.02Z" fill="white"/>
</svg>
