<svg width="690" height="334" viewBox="0 0 690 334" fill="none" xmlns="http://www.w3.org/2000/svg">
<path d="M126.181 77.02L125.591 77.8271L125.595 77.8302L126.181 77.02ZM102.421 59.64L103.011 58.8329L103.003 58.8267L102.995 58.8208L102.421 59.64ZM116.281 57H115.281V58H116.281V57ZM139.381 57V58H140.381V57H139.381ZM86.1411 77.02L86.7315 76.2129L86.7253 76.2084L86.7191 76.204L86.1411 77.02ZM109.901 94.4L110.501 93.5999L110.491 93.5929L109.901 94.4ZM95.3811 96.38H96.3811V95.38H95.3811V96.38ZM72.5011 96.38V95.38H71.5011V96.38H72.5011ZM126.771 76.2129L103.011 58.8329L101.831 60.4471L125.591 77.8271L126.771 76.2129ZM102.995 58.8208C100.854 57.3222 99.3386 55.8849 98.3423 54.1166C97.3502 52.3555 96.8211 50.173 96.8211 47.1H94.8211C94.8211 50.4069 95.392 52.9544 96.5998 55.0983C97.8036 57.235 99.5885 58.8778 101.848 60.4592L102.995 58.8208ZM96.8211 47.1V29.94H94.8211V47.1H96.8211ZM96.8211 29.94C96.8211 27.1146 97.5016 25.2187 98.7007 24.0196C99.8998 22.8205 101.796 22.14 104.621 22.14V20.14C101.506 20.14 99.0024 20.8895 97.2865 22.6054C95.5706 24.3213 94.8211 26.8254 94.8211 29.94H96.8211ZM104.621 22.14H107.481V20.14H104.621V22.14ZM107.481 22.14C110.306 22.14 112.202 22.8205 113.401 24.0196C114.601 25.2187 115.281 27.1146 115.281 29.94H117.281C117.281 26.8254 116.532 24.3213 114.816 22.6054C113.1 20.8895 110.596 20.14 107.481 20.14V22.14ZM115.281 29.94V57H117.281V29.94H115.281ZM116.281 58H139.381V56H116.281V58ZM140.381 57V29.06H138.381V57H140.381ZM140.381 29.06C140.381 19.4458 137.977 12.0516 132.993 7.06789C128.01 2.08421 120.615 -0.320007 111.001 -0.320007V1.67999C120.307 1.67999 127.103 4.00578 131.579 8.4821C136.055 12.9584 138.381 19.7541 138.381 29.06H140.381ZM111.001 -0.320007H101.101V1.67999H111.001V-0.320007ZM101.101 -0.320007C91.3799 -0.320007 83.9291 2.08275 78.9165 7.09539C73.9039 12.108 71.5011 19.5588 71.5011 29.28H73.5011C73.5011 19.8612 75.8283 13.012 80.3307 8.5096C84.8331 4.00723 91.6823 1.67999 101.101 1.67999V-0.320007ZM71.5011 29.28V50.4H73.5011V29.28H71.5011ZM71.5011 50.4C71.5011 56.422 72.2806 61.3776 74.4643 65.8025C76.6502 70.2319 80.1957 74.0341 85.5631 77.836L86.7191 76.204C81.5265 72.5259 78.2519 68.9581 76.2578 64.9174C74.2616 60.8724 73.5011 56.258 73.5011 50.4H71.5011ZM85.5507 77.8271L109.311 95.2071L110.491 93.5929L86.7315 76.2129L85.5507 77.8271ZM109.301 95.2C111.464 96.8221 112.984 98.2636 113.983 100.011C114.973 101.743 115.501 103.869 115.501 106.94H117.501C117.501 103.631 116.929 101.137 115.719 99.0189C114.518 96.9164 112.738 95.2779 110.501 93.6L109.301 95.2ZM115.501 106.94V128.06H117.501V106.94H115.501ZM115.501 128.06C115.501 130.885 114.821 132.776 113.601 133.974C112.377 135.175 110.425 135.86 107.481 135.86V137.86C110.697 137.86 113.256 137.115 115.002 135.401C116.751 133.684 117.501 131.175 117.501 128.06H115.501ZM107.481 135.86H104.401V137.86H107.481V135.86ZM104.401 135.86C101.457 135.86 99.5055 135.175 98.2816 133.974C97.0614 132.776 96.3811 130.885 96.3811 128.06H94.3811C94.3811 131.175 95.1307 133.684 96.8806 135.401C98.6267 137.115 101.185 137.86 104.401 137.86V135.86ZM96.3811 128.06V96.38H94.3811V128.06H96.3811ZM95.3811 95.38H72.5011V97.38H95.3811V95.38ZM71.5011 96.38V128.94H73.5011V96.38H71.5011ZM71.5011 128.94C71.5011 138.548 73.8473 145.944 78.8044 150.93C83.7626 155.917 91.1599 158.32 100.881 158.32V156.32C91.4623 156.32 84.6696 153.993 80.2228 149.52C75.7748 145.046 73.5011 138.252 73.5011 128.94H71.5011ZM100.881 158.32H111.221V156.32H100.881V158.32ZM111.221 158.32C120.942 158.32 128.393 155.917 133.406 150.905C138.418 145.892 140.821 138.441 140.821 128.72H138.821C138.821 138.139 136.494 144.988 131.991 149.49C127.489 153.993 120.64 156.32 111.221 156.32V158.32ZM140.821 128.72V103.64H138.821V128.72H140.821ZM140.821 103.64C140.821 97.2869 139.986 92.3256 137.769 87.9782C135.553 83.6309 132.006 79.9993 126.767 76.2098L125.595 77.8302C130.697 81.5207 133.97 84.9291 135.988 88.8868C138.006 92.8444 138.821 97.453 138.821 103.64H140.821ZM196.653 1.99999L197.644 1.86335L197.525 0.99999H196.653V1.99999ZM161.453 1.99999V0.99999H160.453V1.99999H161.453ZM161.453 156H160.453V157H161.453V156ZM181.693 156V157H182.693V156H181.693ZM181.693 40.06L182.683 39.9154L180.693 40.06H181.693ZM198.633 156L197.644 156.145L197.769 157H198.633V156ZM221.513 156V157H222.377L222.503 156.145L221.513 156ZM238.453 40.5H239.453L237.464 40.3549L238.453 40.5ZM238.453 156H237.453V157H238.453V156ZM261.553 156V157H262.553V156H261.553ZM261.553 1.99999H262.553V0.99999H261.553V1.99999ZM226.573 1.99999V0.99999H225.702L225.583 1.86335L226.573 1.99999ZM211.613 110.46L210.623 110.597H212.604L211.613 110.46ZM196.653 0.99999H161.453V2.99999H196.653V0.99999ZM160.453 1.99999V156H162.453V1.99999H160.453ZM161.453 157H181.693V155H161.453V157ZM182.693 156V40.06H180.693V156H182.693ZM180.704 40.2046L197.644 156.145L199.623 155.855L182.683 39.9154L180.704 40.2046ZM198.633 157H221.513V155H198.633V157ZM222.503 156.145L239.443 40.6451L237.464 40.3549L220.524 155.855L222.503 156.145ZM237.453 40.5V156H239.453V40.5H237.453ZM238.453 157H261.553V155H238.453V157ZM262.553 156V1.99999H260.553V156H262.553ZM261.553 0.99999H226.573V2.99999H261.553V0.99999ZM225.583 1.86335L210.623 110.323L212.604 110.597L227.564 2.13663L225.583 1.86335ZM212.604 110.323L197.644 1.86335L195.663 2.13663L210.623 110.597L212.604 110.323ZM354.635 128.72V29.28H352.635V128.72H354.635ZM354.635 29.28C354.635 19.5588 352.233 12.108 347.22 7.09539C342.207 2.08275 334.757 -0.320007 325.035 -0.320007V1.67999C334.454 1.67999 341.303 4.00723 345.806 8.5096C350.308 13.012 352.635 19.8612 352.635 29.28H354.635ZM325.035 -0.320007H312.495V1.67999H325.035V-0.320007ZM312.495 -0.320007C302.774 -0.320007 295.323 2.08275 290.311 7.09539C285.298 12.108 282.895 19.5588 282.895 29.28H284.895C284.895 19.8612 287.223 13.012 291.725 8.5096C296.227 4.00723 303.077 1.67999 312.495 1.67999V-0.320007ZM282.895 29.28V128.72H284.895V29.28H282.895ZM282.895 128.72C282.895 138.441 285.298 145.892 290.311 150.905C295.323 155.917 302.774 158.32 312.495 158.32V156.32C303.077 156.32 296.227 153.993 291.725 149.49C287.223 144.988 284.895 138.139 284.895 128.72H282.895ZM312.495 158.32H325.035V156.32H312.495V158.32ZM325.035 158.32C334.757 158.32 342.207 155.917 347.22 150.905C352.233 145.892 354.635 138.441 354.635 128.72H352.635C352.635 138.139 350.308 144.988 345.806 149.49C341.303 153.993 334.454 156.32 325.035 156.32V158.32ZM329.095 30.38V127.62H331.095V30.38H329.095ZM329.095 127.62C329.095 130.564 328.41 132.516 327.209 133.74C326.012 134.96 324.121 135.64 321.295 135.64V137.64C324.41 137.64 326.919 136.89 328.637 135.14C330.35 133.394 331.095 130.836 331.095 127.62H329.095ZM321.295 135.64H316.455V137.64H321.295V135.64ZM316.455 135.64C313.511 135.64 311.565 134.955 310.342 133.733C309.12 132.511 308.435 130.565 308.435 127.62H306.435C306.435 130.835 307.18 133.399 308.928 135.147C310.676 136.895 313.24 137.64 316.455 137.64V135.64ZM308.435 127.62V30.38H306.435V127.62H308.435ZM308.435 30.38C308.435 27.4355 309.12 25.4893 310.342 24.2671C311.565 23.0449 313.511 22.36 316.455 22.36V20.36C313.24 20.36 310.676 21.1051 308.928 22.8529C307.18 24.6006 306.435 27.1645 306.435 30.38H308.435ZM316.455 22.36H321.295V20.36H316.455V22.36ZM321.295 22.36C324.121 22.36 326.012 23.0403 327.209 24.2605C328.41 25.4844 329.095 27.4356 329.095 30.38H331.095C331.095 27.1643 330.35 24.6056 328.637 22.8595C326.919 21.1096 324.41 20.36 321.295 20.36V22.36ZM446.365 128.72V29.28H444.365V128.72H446.365ZM446.365 29.28C446.365 19.5588 443.962 12.108 438.95 7.09539C433.937 2.08275 426.486 -0.320007 416.765 -0.320007V1.67999C426.184 1.67999 433.033 4.00723 437.535 8.5096C442.038 13.012 444.365 19.8612 444.365 29.28H446.365ZM416.765 -0.320007H404.225V1.67999H416.765V-0.320007ZM404.225 -0.320007C394.504 -0.320007 387.053 2.08275 382.04 7.09539C377.028 12.108 374.625 19.5588 374.625 29.28H376.625C376.625 19.8612 378.952 13.012 383.455 8.5096C387.957 4.00723 394.806 1.67999 404.225 1.67999V-0.320007ZM374.625 29.28V128.72H376.625V29.28H374.625ZM374.625 128.72C374.625 138.441 377.028 145.892 382.04 150.905C387.053 155.917 394.504 158.32 404.225 158.32V156.32C394.806 156.32 387.957 153.993 383.455 149.49C378.952 144.988 376.625 138.139 376.625 128.72H374.625ZM404.225 158.32H416.765V156.32H404.225V158.32ZM416.765 158.32C426.486 158.32 433.937 155.917 438.95 150.905C443.962 145.892 446.365 138.441 446.365 128.72H444.365C444.365 138.139 442.038 144.988 437.535 149.49C433.033 153.993 426.184 156.32 416.765 156.32V158.32ZM420.825 30.38V127.62H422.825V30.38H420.825ZM420.825 127.62C420.825 130.564 420.14 132.516 418.939 133.74C417.741 134.96 415.85 135.64 413.025 135.64V137.64C416.14 137.64 418.649 136.89 420.366 135.14C422.08 133.394 422.825 130.836 422.825 127.62H420.825ZM413.025 135.64H408.185V137.64H413.025V135.64ZM408.185 135.64C405.24 135.64 403.294 134.955 402.072 133.733C400.85 132.511 400.165 130.565 400.165 127.62H398.165C398.165 130.835 398.91 133.399 400.658 135.147C402.406 136.895 404.97 137.64 408.185 137.64V135.64ZM400.165 127.62V30.38H398.165V127.62H400.165ZM400.165 30.38C400.165 27.4355 400.85 25.4893 402.072 24.2671C403.294 23.0449 405.24 22.36 408.185 22.36V20.36C404.97 20.36 402.406 21.1051 400.658 22.8529C398.91 24.6006 398.165 27.1645 398.165 30.38H400.165ZM408.185 22.36H413.025V20.36H408.185V22.36ZM413.025 22.36C415.85 22.36 417.741 23.0403 418.939 24.2605C420.14 25.4844 420.825 27.4356 420.825 30.38H422.825C422.825 27.1643 422.08 24.6056 420.366 22.8595C418.649 21.1096 416.14 20.36 413.025 20.36V22.36ZM505.896 156V157H506.896V156H505.896ZM505.896 23.34V22.34H504.896V23.34H505.896ZM527.016 23.34V24.34H528.016V23.34H527.016ZM527.016 1.99999H528.016V0.99999H527.016V1.99999ZM461.236 1.99999V0.99999H460.236V1.99999H461.236ZM461.236 23.34H460.236V24.34H461.236V23.34ZM482.356 23.34H483.356V22.34H482.356V23.34ZM482.356 156H481.356V157H482.356V156ZM506.896 156V23.34H504.896V156H506.896ZM505.896 24.34H527.016V22.34H505.896V24.34ZM528.016 23.34V1.99999H526.016V23.34H528.016ZM527.016 0.99999H461.236V2.99999H527.016V0.99999ZM460.236 1.99999V23.34H462.236V1.99999H460.236ZM461.236 24.34H482.356V22.34H461.236V24.34ZM481.356 23.34V156H483.356V23.34H481.356ZM482.356 157H505.896V155H482.356V157ZM568.67 66.9H567.67V67.9H568.67V66.9ZM568.67 1.99999H569.67V0.99999H568.67V1.99999ZM545.13 1.99999V0.99999H544.13V1.99999H545.13ZM545.13 156H544.13V157H545.13V156ZM568.67 156V157H569.67V156H568.67ZM568.67 88.24V87.24H567.67V88.24H568.67ZM591.33 88.24H592.33V87.24H591.33V88.24ZM591.33 156H590.33V157H591.33V156ZM614.87 156V157H615.87V156H614.87ZM614.87 1.99999H615.87V0.99999H614.87V1.99999ZM591.33 1.99999V0.99999H590.33V1.99999H591.33ZM591.33 66.9V67.9H592.33V66.9H591.33ZM569.67 66.9V1.99999H567.67V66.9H569.67ZM568.67 0.99999H545.13V2.99999H568.67V0.99999ZM544.13 1.99999V156H546.13V1.99999H544.13ZM545.13 157H568.67V155H545.13V157ZM569.67 156V88.24H567.67V156H569.67ZM568.67 89.24H591.33V87.24H568.67V89.24ZM590.33 88.24V156H592.33V88.24H590.33ZM591.33 157H614.87V155H591.33V157ZM615.87 156V1.99999H613.87V156H615.87ZM614.87 0.99999H591.33V2.99999H614.87V0.99999ZM590.33 1.99999V66.9H592.33V1.99999H590.33ZM591.33 65.9H568.67V67.9H591.33V65.9ZM35.3228 178L36.3134 177.863L36.1944 177H35.3228V178ZM0.122825 178V177H-0.877175V178H0.122825ZM0.122825 332H-0.877175V333H0.122825V332ZM20.3628 332V333H21.3628V332H20.3628ZM20.3628 216.06L21.3523 215.915L19.3628 216.06H20.3628ZM37.3028 332L36.3133 332.145L36.4383 333H37.3028V332ZM60.1828 332V333H61.0469L61.1722 332.145L60.1828 332ZM77.1228 216.5H78.1228L76.1334 216.355L77.1228 216.5ZM77.1228 332H76.1228V333H77.1228V332ZM100.223 332V333H101.223V332H100.223ZM100.223 178H101.223V177H100.223V178ZM65.2428 178V177H64.3713L64.2522 177.863L65.2428 178ZM50.2828 286.46L49.2922 286.597H51.2734L50.2828 286.46ZM35.3228 177H0.122825V179H35.3228V177ZM-0.877175 178V332H1.12282V178H-0.877175ZM0.122825 333H20.3628V331H0.122825V333ZM21.3628 332V216.06H19.3628V332H21.3628ZM19.3733 216.205L36.3133 332.145L38.2923 331.855L21.3523 215.915L19.3733 216.205ZM37.3028 333H60.1828V331H37.3028V333ZM61.1722 332.145L78.1122 216.645L76.1334 216.355L59.1934 331.855L61.1722 332.145ZM76.1228 216.5V332H78.1228V216.5H76.1228ZM77.1228 333H100.223V331H77.1228V333ZM101.223 332V178H99.2228V332H101.223ZM100.223 177H65.2428V179H100.223V177ZM64.2522 177.863L49.2922 286.323L51.2734 286.597L66.2334 178.137L64.2522 177.863ZM51.2734 286.323L36.3134 177.863L34.3322 178.137L49.2922 286.597L51.2734 286.323ZM123.005 178V177H122.005V178H123.005ZM123.005 332H122.005V333H123.005V332ZM175.805 332V333H176.805V332H175.805ZM175.805 310.66H176.805V309.66H175.805V310.66ZM146.545 310.66H145.545V311.66H146.545V310.66ZM146.545 264.24V263.24H145.545V264.24H146.545ZM174.265 264.24V265.24H175.265V264.24H174.265ZM174.265 242.9H175.265V241.9H174.265V242.9ZM146.545 242.9H145.545V243.9H146.545V242.9ZM146.545 199.34V198.34H145.545V199.34H146.545ZM175.365 199.34V200.34H176.365V199.34H175.365ZM175.365 178H176.365V177H175.365V178ZM122.005 178V332H124.005V178H122.005ZM123.005 333H175.805V331H123.005V333ZM176.805 332V310.66H174.805V332H176.805ZM175.805 309.66H146.545V311.66H175.805V309.66ZM147.545 310.66V264.24H145.545V310.66H147.545ZM146.545 265.24H174.265V263.24H146.545V265.24ZM175.265 264.24V242.9H173.265V264.24H175.265ZM174.265 241.9H146.545V243.9H174.265V241.9ZM147.545 242.9V199.34H145.545V242.9H147.545ZM146.545 200.34H175.365V198.34H146.545V200.34ZM176.365 199.34V178H174.365V199.34H176.365ZM175.365 177H123.005V179H175.365V177ZM232.317 178L233.308 177.863L233.189 177H232.317V178ZM197.117 178V177H196.117V178H197.117ZM197.117 332H196.117V333H197.117V332ZM217.357 332V333H218.357V332H217.357ZM217.357 216.06L218.347 215.915L216.357 216.06H217.357ZM234.297 332L233.308 332.145L233.433 333H234.297V332ZM257.177 332V333H258.041L258.167 332.145L257.177 332ZM274.117 216.5H275.117L273.128 216.355L274.117 216.5ZM274.117 332H273.117V333H274.117V332ZM297.217 332V333H298.217V332H297.217ZM297.217 178H298.217V177H297.217V178ZM262.237 178V177H261.366L261.247 177.863L262.237 178ZM247.277 286.46L246.287 286.597H248.268L247.277 286.46ZM232.317 177H197.117V179H232.317V177ZM196.117 178V332H198.117V178H196.117ZM197.117 333H217.357V331H197.117V333ZM218.357 332V216.06H216.357V332H218.357ZM216.368 216.205L233.308 332.145L235.287 331.855L218.347 215.915L216.368 216.205ZM234.297 333H257.177V331H234.297V333ZM258.167 332.145L275.107 216.645L273.128 216.355L256.188 331.855L258.167 332.145ZM273.117 216.5V332H275.117V216.5H273.117ZM274.117 333H297.217V331H274.117V333ZM298.217 332V178H296.217V332H298.217ZM297.217 177H262.237V179H297.217V177ZM261.247 177.863L246.287 286.323L248.268 286.597L263.228 178.137L261.247 177.863ZM248.268 286.323L233.308 177.863L231.327 178.137L246.287 286.597L248.268 286.323ZM390.299 304.72V205.28H388.299V304.72H390.299ZM390.299 205.28C390.299 195.559 387.897 188.108 382.884 183.095C377.871 178.083 370.421 175.68 360.699 175.68V177.68C370.118 177.68 376.967 180.007 381.47 184.51C385.972 189.012 388.299 195.861 388.299 205.28H390.299ZM360.699 175.68H348.159V177.68H360.699V175.68ZM348.159 175.68C338.438 175.68 330.987 178.083 325.975 183.095C320.962 188.108 318.559 195.559 318.559 205.28H320.559C320.559 195.861 322.887 189.012 327.389 184.51C331.891 180.007 338.741 177.68 348.159 177.68V175.68ZM318.559 205.28V304.72H320.559V205.28H318.559ZM318.559 304.72C318.559 314.441 320.962 321.892 325.975 326.905C330.987 331.917 338.438 334.32 348.159 334.32V332.32C338.741 332.32 331.891 329.993 327.389 325.49C322.887 320.988 320.559 314.139 320.559 304.72H318.559ZM348.159 334.32H360.699V332.32H348.159V334.32ZM360.699 334.32C370.421 334.32 377.871 331.917 382.884 326.905C387.897 321.892 390.299 314.441 390.299 304.72H388.299C388.299 314.139 385.972 320.988 381.47 325.49C376.967 329.993 370.118 332.32 360.699 332.32V334.32ZM364.759 206.38V303.62H366.759V206.38H364.759ZM364.759 303.62C364.759 306.564 364.074 308.516 362.873 309.74C361.676 310.96 359.785 311.64 356.959 311.64V313.64C360.074 313.64 362.583 312.89 364.301 311.14C366.014 309.394 366.759 306.836 366.759 303.62H364.759ZM356.959 311.64H352.119V313.64H356.959V311.64ZM352.119 311.64C349.175 311.64 347.229 310.955 346.007 309.733C344.784 308.511 344.099 306.565 344.099 303.62H342.099C342.099 306.835 342.845 309.399 344.592 311.147C346.34 312.895 348.904 313.64 352.119 313.64V311.64ZM344.099 303.62V206.38H342.099V303.62H344.099ZM344.099 206.38C344.099 203.435 344.784 201.489 346.007 200.267C347.229 199.045 349.175 198.36 352.119 198.36V196.36C348.904 196.36 346.34 197.105 344.592 198.853C342.845 200.601 342.099 203.165 342.099 206.38H344.099ZM352.119 198.36H356.959V196.36H352.119V198.36ZM356.959 198.36C359.785 198.36 361.676 199.04 362.873 200.26C364.074 201.484 364.759 203.436 364.759 206.38H366.759C366.759 203.164 366.014 200.606 364.301 198.86C362.583 197.11 360.074 196.36 356.959 196.36V198.36ZM465.629 259.4L465.25 258.475L462.529 259.591L465.366 260.365L465.629 259.4ZM411.729 178V177H410.729V178H411.729ZM411.729 332H410.729V333H411.729V332ZM435.269 332V333H436.269V332H435.269ZM435.269 270.18V269.18H434.269V270.18H435.269ZM455.729 332H454.729V333H455.729V332ZM479.269 332V333H480.269V332H479.269ZM435.269 249.72H434.269V250.72H435.269V249.72ZM435.269 198.9V197.9H434.269V198.9H435.269ZM466.009 260.325C470.45 258.503 473.996 255.85 476.414 251.83C478.821 247.828 480.049 242.57 480.049 235.64H478.049C478.049 242.35 476.857 247.212 474.7 250.8C472.552 254.37 469.388 256.777 465.25 258.475L466.009 260.325ZM480.049 235.64V206.6H478.049V235.64H480.049ZM480.049 206.6C480.049 196.879 477.646 189.428 472.634 184.415C467.621 179.403 460.17 177 450.449 177V179C459.868 179 466.717 181.327 471.219 185.83C475.722 190.332 478.049 197.181 478.049 206.6H480.049ZM450.449 177H411.729V179H450.449V177ZM410.729 178V332H412.729V178H410.729ZM411.729 333H435.269V331H411.729V333ZM436.269 332V270.18H434.269V332H436.269ZM435.269 271.18H445.829V269.18H435.269V271.18ZM445.829 271.18C449.111 271.18 451.273 271.923 452.629 273.28C453.986 274.636 454.729 276.799 454.729 280.08H456.729C456.729 276.541 455.932 273.754 454.044 271.865C452.155 269.977 449.368 269.18 445.829 269.18V271.18ZM454.729 280.08V332H456.729V280.08H454.729ZM455.729 333H479.269V331H455.729V333ZM480.269 332V279.64H478.269V332H480.269ZM480.269 279.64C480.269 273.714 479.266 269.086 476.909 265.58C474.536 262.05 470.887 259.797 465.892 258.435L465.366 260.365C470.052 261.643 473.222 263.68 475.249 266.695C477.292 269.734 478.269 273.906 478.269 279.64H480.269ZM454.509 207.7V240.26H456.509V207.7H454.509ZM454.509 240.26C454.509 243.305 453.774 245.361 452.443 246.669C451.109 247.981 448.992 248.72 445.829 248.72V250.72C449.266 250.72 451.989 249.919 453.845 248.096C455.704 246.269 456.509 243.595 456.509 240.26H454.509ZM445.829 248.72H435.269V250.72H445.829V248.72ZM436.269 249.72V198.9H434.269V249.72H436.269ZM435.269 199.9H446.709V197.9H435.269V199.9ZM446.709 199.9C449.534 199.9 451.43 200.58 452.629 201.78C453.829 202.979 454.509 204.875 454.509 207.7H456.509C456.509 204.585 455.76 202.081 454.044 200.365C452.328 198.65 449.824 197.9 446.709 197.9V199.9ZM525.5 178H526.5V177H525.5V178ZM501.96 178V177H500.96V178H501.96ZM501.96 332H500.96V333H501.96V332ZM525.5 332V333H526.5V332H525.5ZM525.5 177H501.96V179H525.5V177ZM500.96 178V332H502.96V178H500.96ZM501.96 333H525.5V331H501.96V333ZM526.5 332V178H524.5V332H526.5ZM548.567 178V177H547.567V178H548.567ZM548.567 332H547.567V333H548.567V332ZM601.367 332V333H602.367V332H601.367ZM601.367 310.66H602.367V309.66H601.367V310.66ZM572.107 310.66H571.107V311.66H572.107V310.66ZM572.107 264.24V263.24H571.107V264.24H572.107ZM599.827 264.24V265.24H600.827V264.24H599.827ZM599.827 242.9H600.827V241.9H599.827V242.9ZM572.107 242.9H571.107V243.9H572.107V242.9ZM572.107 199.34V198.34H571.107V199.34H572.107ZM600.927 199.34V200.34H601.927V199.34H600.927ZM600.927 178H601.927V177H600.927V178ZM547.567 178V332H549.567V178H547.567ZM548.567 333H601.367V331H548.567V333ZM602.367 332V310.66H600.367V332H602.367ZM601.367 309.66H572.107V311.66H601.367V309.66ZM573.107 310.66V264.24H571.107V310.66H573.107ZM572.107 265.24H599.827V263.24H572.107V265.24ZM600.827 264.24V242.9H598.827V264.24H600.827ZM599.827 241.9H572.107V243.9H599.827V241.9ZM573.107 242.9V199.34H571.107V242.9H573.107ZM572.107 200.34H600.927V198.34H572.107V200.34ZM601.927 199.34V178H599.927V199.34H601.927ZM600.927 177H548.567V179H600.927V177ZM675.485 253.02L674.895 253.827L674.899 253.83L675.485 253.02ZM651.725 235.64L652.315 234.833L652.307 234.827L652.298 234.821L651.725 235.64ZM665.585 233H664.585V234H665.585V233ZM688.685 233V234H689.685V233H688.685ZM635.445 253.02L636.035 252.213L636.029 252.208L636.023 252.204L635.445 253.02ZM659.205 270.4L659.805 269.6L659.795 269.593L659.205 270.4ZM644.685 272.38H645.685V271.38H644.685V272.38ZM621.805 272.38V271.38H620.805V272.38H621.805ZM676.075 252.213L652.315 234.833L651.135 236.447L674.895 253.827L676.075 252.213ZM652.298 234.821C650.158 233.322 648.642 231.885 647.646 230.117C646.654 228.356 646.125 226.173 646.125 223.1H644.125C644.125 226.407 644.696 228.954 645.904 231.098C647.108 233.235 648.892 234.878 651.152 236.459L652.298 234.821ZM646.125 223.1V205.94H644.125V223.1H646.125ZM646.125 205.94C646.125 203.115 646.805 201.219 648.005 200.02C649.204 198.82 651.1 198.14 653.925 198.14V196.14C650.81 196.14 648.306 196.89 646.59 198.605C644.875 200.321 644.125 202.825 644.125 205.94H646.125ZM653.925 198.14H656.785V196.14H653.925V198.14ZM656.785 198.14C659.61 198.14 661.506 198.82 662.705 200.02C663.904 201.219 664.585 203.115 664.585 205.94H666.585C666.585 202.825 665.835 200.321 664.12 198.605C662.404 196.89 659.9 196.14 656.785 196.14V198.14ZM664.585 205.94V233H666.585V205.94H664.585ZM665.585 234H688.685V232H665.585V234ZM689.685 233V205.06H687.685V233H689.685ZM689.685 205.06C689.685 195.446 687.281 188.052 682.297 183.068C677.313 178.084 669.919 175.68 660.305 175.68V177.68C669.611 177.68 676.407 180.006 680.883 184.482C685.359 188.958 687.685 195.754 687.685 205.06H689.685ZM660.305 175.68H650.405V177.68H660.305V175.68ZM650.405 175.68C640.684 175.68 633.233 178.083 628.22 183.095C623.208 188.108 620.805 195.559 620.805 205.28H622.805C622.805 195.861 625.132 189.012 629.635 184.51C634.137 180.007 640.986 177.68 650.405 177.68V175.68ZM620.805 205.28V226.4H622.805V205.28H620.805ZM620.805 226.4C620.805 232.422 621.585 237.378 623.768 241.803C625.954 246.232 629.5 250.034 634.867 253.836L636.023 252.204C630.83 248.526 627.556 244.958 625.562 240.917C623.565 236.872 622.805 232.258 622.805 226.4H620.805ZM634.855 253.827L658.615 271.207L659.795 269.593L636.035 252.213L634.855 253.827ZM658.605 271.2C660.768 272.822 662.288 274.264 663.287 276.011C664.277 277.743 664.805 279.869 664.805 282.94H666.805C666.805 279.631 666.233 277.137 665.023 275.019C663.822 272.916 662.042 271.278 659.805 269.6L658.605 271.2ZM664.805 282.94V304.06H666.805V282.94H664.805ZM664.805 304.06C664.805 306.885 664.125 308.776 662.905 309.974C661.681 311.175 659.729 311.86 656.785 311.86V313.86C660.001 313.86 662.559 313.115 664.305 311.401C666.055 309.684 666.805 307.175 666.805 304.06H664.805ZM656.785 311.86H653.705V313.86H656.785V311.86ZM653.705 311.86C650.761 311.86 648.809 311.175 647.585 309.974C646.365 308.776 645.685 306.885 645.685 304.06H643.685C643.685 307.175 644.435 309.684 646.185 311.401C647.931 313.115 650.489 313.86 653.705 313.86V311.86ZM645.685 304.06V272.38H643.685V304.06H645.685ZM644.685 271.38H621.805V273.38H644.685V271.38ZM620.805 272.38V304.94H622.805V272.38H620.805ZM620.805 304.94C620.805 314.548 623.151 321.944 628.108 326.93C633.066 331.917 640.464 334.32 650.185 334.32V332.32C640.766 332.32 633.974 329.993 629.527 325.52C625.079 321.046 622.805 314.252 622.805 304.94H620.805ZM650.185 334.32H660.525V332.32H650.185V334.32ZM660.525 334.32C670.246 334.32 677.697 331.917 682.71 326.905C687.722 321.892 690.125 314.441 690.125 304.72H688.125C688.125 314.139 685.798 320.988 681.295 325.49C676.793 329.993 669.944 332.32 660.525 332.32V334.32ZM690.125 304.72V279.64H688.125V304.72H690.125ZM690.125 279.64C690.125 273.287 689.29 268.326 687.073 263.978C684.857 259.631 681.31 255.999 676.071 252.21L674.899 253.83C680 257.521 683.273 260.929 685.292 264.887C687.31 268.844 688.125 273.453 688.125 279.64H690.125Z" fill="white"/>
</svg>
