<svg width="512" height="332" viewBox="0 0 512 332" fill="none" xmlns="http://www.w3.org/2000/svg">
<path d="M-82.031 154V21.34H-60.911V-1.04904e-05H-126.691V21.34H-105.571V154H-82.031ZM-19.2571 64.9V-1.04904e-05H-42.7971V154H-19.2571V86.24H3.40289V154H26.9429V-1.04904e-05H3.40289V64.9H-19.2571ZM49.792 -1.04904e-05V154H102.592V132.66H73.332V86.24H101.052V64.9H73.332V21.34H102.152V-1.04904e-05H49.792ZM160.634 -1.04904e-05V154H184.174V87.12H210.794V65.78H184.174V21.34H211.894V-1.04904e-05H160.634ZM300.803 -1.04904e-05H277.263V125.62C277.263 131.78 274.403 134.64 268.463 134.64H264.723C258.563 134.64 255.703 131.78 255.703 125.62V-1.04904e-05H232.163V126.72C232.163 145.86 241.623 155.32 260.763 155.32H272.203C291.343 155.32 300.803 145.86 300.803 126.72V-1.04904e-05ZM363.289 154V21.34H384.409V-1.04904e-05H318.628V21.34H339.748V154H363.289ZM470.942 -1.04904e-05H447.402V125.62C447.402 131.78 444.542 134.64 438.602 134.64H434.862C428.702 134.64 425.842 131.78 425.842 125.62V-1.04904e-05H402.302V126.72C402.302 145.86 411.762 155.32 430.902 155.32H442.342C461.482 155.32 470.942 145.86 470.942 126.72V-1.04904e-05ZM547.508 81.4C556.088 77.88 560.928 71.28 560.928 57.64V28.6C560.928 9.46 551.468 -1.04904e-05 532.328 -1.04904e-05H493.608V154H517.148V92.18H527.708C534.528 92.18 537.608 95.26 537.608 102.08V154H561.148V101.64C561.148 89.98 557.188 84.04 547.508 81.4ZM537.388 29.7V62.26C537.388 68.64 534.308 71.72 527.708 71.72H517.148V20.9H528.588C534.528 20.9 537.388 23.76 537.388 29.7ZM583.618 -1.04904e-05V154H636.418V132.66H607.158V86.24H634.878V64.9H607.158V21.34H635.978V-1.04904e-05H583.618ZM13.3768 176H-10.1632V301.62C-10.1632 307.78 -13.0232 310.64 -18.9632 310.64H-22.7032C-28.8632 310.64 -31.7232 307.78 -31.7232 301.62V176H-55.2632V302.72C-55.2632 321.86 -45.8032 331.32 -26.6632 331.32H-15.2232C3.91681 331.32 13.3768 321.86 13.3768 302.72V176ZM59.802 176H36.262V330H59.802V176ZM132.369 271.7L110.369 176H82.8693V330H103.989L103.769 226.16L127.749 330H153.269V176H132.149L132.369 271.7ZM209.543 289.52L195.463 176H171.703L194.363 330.22H223.183L245.843 176H223.623L209.543 289.52ZM264.395 176V330H317.195V308.66H287.935V262.24H315.655V240.9H287.935V197.34H316.755V176H264.395ZM392.408 257.4C400.988 253.88 405.828 247.28 405.828 233.64V204.6C405.828 185.46 396.368 176 377.228 176H338.508V330H362.048V268.18H372.608C379.428 268.18 382.508 271.26 382.508 278.08V330H406.048V277.64C406.048 265.98 402.088 260.04 392.408 257.4ZM382.288 205.7V238.26C382.288 244.64 379.208 247.72 372.608 247.72H362.048V196.9H373.488C379.428 196.9 382.288 199.76 382.288 205.7ZM481.539 251.02L457.779 233.64C453.379 230.56 451.179 227.48 451.179 221.1V203.94C451.179 198 454.039 195.14 459.979 195.14H462.839C468.779 195.14 471.639 198 471.639 203.94V231H494.739V203.06C494.739 184.14 485.279 174.68 466.359 174.68H456.459C437.319 174.68 427.859 184.14 427.859 203.28V224.4C427.859 236.28 430.939 243.54 441.499 251.02L465.259 268.4C469.659 271.7 471.859 274.56 471.859 280.94V302.06C471.859 308 468.999 310.86 462.839 310.86H459.759C453.599 310.86 450.739 308 450.739 302.06V270.38H427.859V302.94C427.859 321.86 437.099 331.32 456.239 331.32H466.579C485.719 331.32 495.179 321.86 495.179 302.72V277.64C495.179 265.1 491.879 258.5 481.539 251.02ZM516.811 176V330H569.611V308.66H540.351V262.24H568.071V240.9H540.351V197.34H569.171V176H516.811Z" fill="white"/>
</svg>
