<svg width="512" height="334" viewBox="0 0 512 334" fill="none" xmlns="http://www.w3.org/2000/svg">
<path d="M24.4354 77.02L0.675398 59.64C-3.7246 56.56 -5.9246 53.48 -5.9246 47.1V29.94C-5.9246 24 -3.0646 21.14 2.8754 21.14H5.7354C11.6754 21.14 14.5354 24 14.5354 29.94V57H37.6354V29.06C37.6354 10.14 28.1754 0.679993 9.2554 0.679993H-0.644601C-19.7846 0.679993 -29.2446 10.14 -29.2446 29.28V50.4C-29.2446 62.28 -26.1646 69.54 -15.6046 77.02L8.1554 94.4C12.5554 97.7 14.7554 100.56 14.7554 106.94V128.06C14.7554 134 11.8954 136.86 5.7354 136.86H2.6554C-3.5046 136.86 -6.3646 134 -6.3646 128.06V96.38H-29.2446V128.94C-29.2446 147.86 -20.0046 157.32 -0.864602 157.32H9.4754C28.6154 157.32 38.0754 147.86 38.0754 128.72V103.64C38.0754 91.1 34.7754 84.5 24.4354 77.02ZM83.2476 66.9V1.99999H59.7076V156H83.2476V88.24H105.908V156H129.448V1.99999H105.908V66.9H83.2476ZM152.297 1.99999V156H205.097V134.66H175.837V88.24H203.557V66.9H175.837V23.34H204.657V1.99999H152.297ZM278.539 156H306.479L316.819 63.82L327.159 156H354.879L373.579 1.99999H352.019L341.019 110.46L329.139 1.99999H306.479L294.599 110.68L283.599 1.99999H259.839L278.539 156ZM435.505 1.77999H404.265L382.265 156H404.045L406.905 131.8H431.325L434.405 156H457.725L435.505 1.77999ZM419.225 33.9L428.685 110.9H409.545L419.225 33.9ZM528.192 77.02L504.432 59.64C500.032 56.56 497.832 53.48 497.832 47.1V29.94C497.832 24 500.692 21.14 506.632 21.14H509.492C515.432 21.14 518.292 24 518.292 29.94V57H541.392V29.06C541.392 10.14 531.932 0.679993 513.012 0.679993H503.112C483.972 0.679993 474.512 10.14 474.512 29.28V50.4C474.512 62.28 477.592 69.54 488.152 77.02L511.912 94.4C516.312 97.7 518.512 100.56 518.512 106.94V128.06C518.512 134 515.652 136.86 509.492 136.86H506.412C500.252 136.86 497.392 134 497.392 128.06V96.38H474.512V128.94C474.512 147.86 483.752 157.32 502.892 157.32H513.232C532.372 157.32 541.832 147.86 541.832 128.72V103.64C541.832 91.1 538.532 84.5 528.192 77.02ZM-105.414 252.8C-96.8345 249.72 -92.2145 242.9 -92.2145 229.26V206.6C-92.2145 187.46 -101.674 178 -120.814 178H-158.874V332H-120.374C-101.234 332 -91.7745 322.54 -91.7745 303.4V275.02C-91.7745 262.48 -96.1745 255.88 -105.414 252.8ZM-115.534 207.48V233.88C-115.534 240.48 -118.614 243.56 -125.214 243.56H-135.554V198.68H-124.334C-118.394 198.68 -115.534 201.54 -115.534 207.48ZM-135.554 263.58H-124.774C-118.174 263.58 -115.094 266.66 -115.094 273.26V302.52C-115.094 308.46 -117.954 311.32 -123.894 311.32H-135.554V263.58ZM-0.422893 304.72V205.28C-0.422893 186.14 -9.88289 176.68 -29.0229 176.68H-41.5629C-60.7029 176.68 -70.1629 186.14 -70.1629 205.28V304.72C-70.1629 323.86 -60.7029 333.32 -41.5629 333.32H-29.0229C-9.88289 333.32 -0.422893 323.86 -0.422893 304.72ZM-23.9629 206.38V303.62C-23.9629 309.78 -26.8229 312.64 -32.7629 312.64H-37.6029C-43.7629 312.64 -46.6229 309.78 -46.6229 303.62V206.38C-46.6229 200.22 -43.7629 197.36 -37.6029 197.36H-32.7629C-26.8229 197.36 -23.9629 200.22 -23.9629 206.38ZM75.9068 259.4C84.4868 255.88 89.3268 249.28 89.3268 235.64V206.6C89.3268 187.46 79.8668 178 60.7268 178H22.0068V332H45.5468V270.18H56.1068C62.9268 270.18 66.0068 273.26 66.0068 280.08V332H89.5468V279.64C89.5468 267.98 85.5868 262.04 75.9068 259.4ZM65.7868 207.7V240.26C65.7868 246.64 62.7068 249.72 56.1068 249.72H45.5468V198.9H56.9868C62.9268 198.9 65.7868 201.76 65.7868 207.7ZM161.518 273.7L139.518 178H112.018V332H133.138L132.918 228.16L156.898 332H182.418V178H161.298L161.518 273.7ZM310.401 178H286.861V303.62C286.861 309.78 284.001 312.64 278.061 312.64H274.321C268.161 312.64 265.301 309.78 265.301 303.62V178H241.761V304.72C241.761 323.86 251.221 333.32 270.361 333.32H281.801C300.941 333.32 310.401 323.86 310.401 304.72V178ZM386.966 259.4C395.546 255.88 400.386 249.28 400.386 235.64V206.6C400.386 187.46 390.926 178 371.786 178H333.066V332H356.606V270.18H367.166C373.986 270.18 377.066 273.26 377.066 280.08V332H400.606V279.64C400.606 267.98 396.646 262.04 386.966 259.4ZM376.846 207.7V240.26C376.846 246.64 373.766 249.72 367.166 249.72H356.606V198.9H368.046C373.986 198.9 376.846 201.76 376.846 207.7ZM476.537 252.8C485.117 249.72 489.737 242.9 489.737 229.26V206.6C489.737 187.46 480.277 178 461.137 178H423.077V332H461.577C480.717 332 490.177 322.54 490.177 303.4V275.02C490.177 262.48 485.777 255.88 476.537 252.8ZM466.417 207.48V233.88C466.417 240.48 463.337 243.56 456.737 243.56H446.397V198.68H457.617C463.557 198.68 466.417 201.54 466.417 207.48ZM446.397 263.58H457.177C463.777 263.58 466.857 266.66 466.857 273.26V302.52C466.857 308.46 463.997 311.32 458.057 311.32H446.397V263.58ZM559.78 177.78H528.54L506.54 332H528.32L531.18 307.8H555.6L558.68 332H582L559.78 177.78ZM543.5 209.9L552.96 286.9H533.82L543.5 209.9ZM650.021 273.7L628.021 178H600.521V332H621.641L621.421 228.16L645.401 332H670.921V178H649.801L650.021 273.7Z" fill="white"/>
</svg>
