<svg width="830" height="334" viewBox="0 0 830 334" fill="none" xmlns="http://www.w3.org/2000/svg">
<path d="M183.435 77.02L182.845 77.8271L182.849 77.8302L183.435 77.02ZM159.675 59.64L160.266 58.8329L160.257 58.8267L160.249 58.8208L159.675 59.64ZM173.535 57H172.535V58H173.535V57ZM196.635 57V58H197.635V57H196.635ZM143.395 77.02L143.986 76.2129L143.98 76.2084L143.973 76.204L143.395 77.02ZM167.155 94.4L167.755 93.5999L167.746 93.5929L167.155 94.4ZM152.635 96.38H153.635V95.38H152.635V96.38ZM129.755 96.38V95.38H128.755V96.38H129.755ZM184.026 76.2129L160.266 58.8329L159.085 60.4471L182.845 77.8271L184.026 76.2129ZM160.249 58.8208C158.108 57.3222 156.593 55.8849 155.597 54.1166C154.604 52.3555 154.075 50.173 154.075 47.1H152.075C152.075 50.4069 152.646 52.9544 153.854 55.0983C155.058 57.235 156.843 58.8778 159.102 60.4592L160.249 58.8208ZM154.075 47.1V29.94H152.075V47.1H154.075ZM154.075 29.94C154.075 27.1146 154.756 25.2187 155.955 24.0196C157.154 22.8205 159.05 22.14 161.875 22.14V20.14C158.761 20.14 156.257 20.8895 154.541 22.6054C152.825 24.3213 152.075 26.8254 152.075 29.94H154.075ZM161.875 22.14H164.735V20.14H161.875V22.14ZM164.735 22.14C167.561 22.14 169.457 22.8205 170.656 24.0196C171.855 25.2187 172.535 27.1146 172.535 29.94H174.535C174.535 26.8254 173.786 24.3213 172.07 22.6054C170.354 20.8895 167.85 20.14 164.735 20.14V22.14ZM172.535 29.94V57H174.535V29.94H172.535ZM173.535 58H196.635V56H173.535V58ZM197.635 57V29.06H195.635V57H197.635ZM197.635 29.06C197.635 19.4458 195.231 12.0516 190.248 7.06789C185.264 2.08421 177.87 -0.320007 168.255 -0.320007V1.67999C177.561 1.67999 184.357 4.00578 188.833 8.4821C193.31 12.9584 195.635 19.7541 195.635 29.06H197.635ZM168.255 -0.320007H158.355V1.67999H168.255V-0.320007ZM158.355 -0.320007C148.634 -0.320007 141.183 2.08275 136.171 7.09539C131.158 12.108 128.755 19.5588 128.755 29.28H130.755C130.755 19.8612 133.083 13.012 137.585 8.5096C142.087 4.00723 148.937 1.67999 158.355 1.67999V-0.320007ZM128.755 29.28V50.4H130.755V29.28H128.755ZM128.755 50.4C128.755 56.422 129.535 61.3776 131.719 65.8025C133.905 70.2319 137.45 74.0341 142.817 77.836L143.973 76.204C138.781 72.5259 135.506 68.9581 133.512 64.9174C131.516 60.8724 130.755 56.258 130.755 50.4H128.755ZM142.805 77.8271L166.565 95.2071L167.746 93.5929L143.986 76.2129L142.805 77.8271ZM166.555 95.2C168.718 96.8221 170.239 98.2636 171.237 100.011C172.227 101.743 172.755 103.869 172.755 106.94H174.755C174.755 103.631 174.184 101.137 172.974 99.0189C171.772 96.9164 169.993 95.2779 167.755 93.6L166.555 95.2ZM172.755 106.94V128.06H174.755V106.94H172.755ZM172.755 128.06C172.755 130.885 172.075 132.776 170.855 133.974C169.631 135.175 167.68 135.86 164.735 135.86V137.86C167.951 137.86 170.51 137.115 172.256 135.401C174.006 133.684 174.755 131.175 174.755 128.06H172.755ZM164.735 135.86H161.655V137.86H164.735V135.86ZM161.655 135.86C158.711 135.86 156.76 135.175 155.536 133.974C154.316 132.776 153.635 130.885 153.635 128.06H151.635C151.635 131.175 152.385 133.684 154.135 135.401C155.881 137.115 158.44 137.86 161.655 137.86V135.86ZM153.635 128.06V96.38H151.635V128.06H153.635ZM152.635 95.38H129.755V97.38H152.635V95.38ZM128.755 96.38V128.94H130.755V96.38H128.755ZM128.755 128.94C128.755 138.548 131.102 145.944 136.059 150.93C141.017 155.917 148.414 158.32 158.135 158.32V156.32C148.717 156.32 141.924 153.993 137.477 149.52C133.029 145.046 130.755 138.252 130.755 128.94H128.755ZM158.135 158.32H168.475V156.32H158.135V158.32ZM168.475 158.32C178.197 158.32 185.647 155.917 190.66 150.905C195.673 145.892 198.075 138.441 198.075 128.72H196.075C196.075 138.139 193.748 144.988 189.246 149.49C184.743 153.993 177.894 156.32 168.475 156.32V158.32ZM198.075 128.72V103.64H196.075V128.72H198.075ZM198.075 103.64C198.075 97.2869 197.241 92.3256 195.024 87.9782C192.807 83.6309 189.26 79.9993 184.022 76.2098L182.849 77.8302C187.951 81.5207 191.224 84.9291 193.242 88.8868C195.26 92.8444 196.075 97.453 196.075 103.64H198.075ZM242.248 66.9H241.248V67.9H242.248V66.9ZM242.248 1.99999H243.248V0.99999H242.248V1.99999ZM218.708 1.99999V0.99999H217.708V1.99999H218.708ZM218.708 156H217.708V157H218.708V156ZM242.248 156V157H243.248V156H242.248ZM242.248 88.24V87.24H241.248V88.24H242.248ZM264.908 88.24H265.908V87.24H264.908V88.24ZM264.908 156H263.908V157H264.908V156ZM288.448 156V157H289.448V156H288.448ZM288.448 1.99999H289.448V0.99999H288.448V1.99999ZM264.908 1.99999V0.99999H263.908V1.99999H264.908ZM264.908 66.9V67.9H265.908V66.9H264.908ZM243.248 66.9V1.99999H241.248V66.9H243.248ZM242.248 0.99999H218.708V2.99999H242.248V0.99999ZM217.708 1.99999V156H219.708V1.99999H217.708ZM218.708 157H242.248V155H218.708V157ZM243.248 156V88.24H241.248V156H243.248ZM242.248 89.24H264.908V87.24H242.248V89.24ZM263.908 88.24V156H265.908V88.24H263.908ZM264.908 157H288.448V155H264.908V157ZM289.448 156V1.99999H287.448V156H289.448ZM288.448 0.99999H264.908V2.99999H288.448V0.99999ZM263.908 1.99999V66.9H265.908V1.99999H263.908ZM264.908 65.9H242.248V67.9H264.908V65.9ZM311.297 1.99999V0.99999H310.297V1.99999H311.297ZM311.297 156H310.297V157H311.297V156ZM364.097 156V157H365.097V156H364.097ZM364.097 134.66H365.097V133.66H364.097V134.66ZM334.837 134.66H333.837V135.66H334.837V134.66ZM334.837 88.24V87.24H333.837V88.24H334.837ZM362.557 88.24V89.24H363.557V88.24H362.557ZM362.557 66.9H363.557V65.9H362.557V66.9ZM334.837 66.9H333.837V67.9H334.837V66.9ZM334.837 23.34V22.34H333.837V23.34H334.837ZM363.657 23.34V24.34H364.657V23.34H363.657ZM363.657 1.99999H364.657V0.99999H363.657V1.99999ZM310.297 1.99999V156H312.297V1.99999H310.297ZM311.297 157H364.097V155H311.297V157ZM365.097 156V134.66H363.097V156H365.097ZM364.097 133.66H334.837V135.66H364.097V133.66ZM335.837 134.66V88.24H333.837V134.66H335.837ZM334.837 89.24H362.557V87.24H334.837V89.24ZM363.557 88.24V66.9H361.557V88.24H363.557ZM362.557 65.9H334.837V67.9H362.557V65.9ZM335.837 66.9V23.34H333.837V66.9H335.837ZM334.837 24.34H363.657V22.34H334.837V24.34ZM364.657 23.34V1.99999H362.657V23.34H364.657ZM363.657 0.99999H311.297V2.99999H363.657V0.99999ZM437.539 156L436.546 156.121L436.653 157H437.539V156ZM465.479 156V157H466.373L466.473 156.111L465.479 156ZM475.819 63.82L476.813 63.7085H474.825L475.819 63.82ZM486.159 156L485.165 156.111L485.265 157H486.159V156ZM513.879 156V157H514.765L514.872 156.121L513.879 156ZM532.579 1.99999L533.572 2.12053L533.708 0.99999H532.579V1.99999ZM511.019 1.99999V0.99999H510.115L510.024 1.89909L511.019 1.99999ZM500.019 110.46L499.025 110.569L501.014 110.561L500.019 110.46ZM488.139 1.99999L489.133 1.89111L489.035 0.99999H488.139V1.99999ZM465.479 1.99999V0.99999H464.582L464.485 1.89133L465.479 1.99999ZM453.599 110.68L452.604 110.781L454.593 110.789L453.599 110.68ZM442.599 1.99999L443.594 1.89929L443.503 0.99999H442.599V1.99999ZM418.839 1.99999V0.99999H417.71L417.846 2.12053L418.839 1.99999ZM437.539 157H465.479V155H437.539V157ZM466.473 156.111L476.813 63.9315L474.825 63.7085L464.485 155.889L466.473 156.111ZM474.825 63.9315L485.165 156.111L487.153 155.889L476.813 63.7085L474.825 63.9315ZM486.159 157H513.879V155H486.159V157ZM514.872 156.121L533.572 2.12053L531.586 1.87945L512.886 155.879L514.872 156.121ZM532.579 0.99999H511.019V2.99999H532.579V0.99999ZM510.024 1.89909L499.024 110.359L501.014 110.561L512.014 2.10089L510.024 1.89909ZM501.013 110.351L489.133 1.89111L487.145 2.10887L499.025 110.569L501.013 110.351ZM488.139 0.99999H465.479V2.99999H488.139V0.99999ZM464.485 1.89133L452.605 110.571L454.593 110.789L466.473 2.10865L464.485 1.89133ZM454.594 110.579L443.594 1.89929L441.604 2.10069L452.604 110.781L454.594 110.579ZM442.599 0.99999H418.839V2.99999H442.599V0.99999ZM417.846 2.12053L436.546 156.121L438.532 155.879L419.832 1.87945L417.846 2.12053ZM594.505 1.77999L595.495 1.63739L595.372 0.779992H594.505V1.77999ZM563.265 1.77999V0.779992H562.398L562.275 1.63877L563.265 1.77999ZM541.265 156L540.275 155.859L540.113 157H541.265V156ZM563.045 156V157H563.934L564.038 156.117L563.045 156ZM565.905 131.8V130.8H565.017L564.912 131.683L565.905 131.8ZM590.325 131.8L591.317 131.674L591.206 130.8H590.325V131.8ZM593.405 156L592.413 156.126L592.525 157H593.405V156ZM616.725 156V157H617.88L617.715 155.857L616.725 156ZM578.225 33.9L579.218 33.7781L577.233 33.7753L578.225 33.9ZM587.685 110.9V111.9H588.816L588.678 110.778L587.685 110.9ZM568.545 110.9L567.553 110.775L567.412 111.9H568.545V110.9ZM594.505 0.779992H563.265V2.77999H594.505V0.779992ZM562.275 1.63877L540.275 155.859L542.255 156.141L564.255 1.92122L562.275 1.63877ZM541.265 157H563.045V155H541.265V157ZM564.038 156.117L566.898 131.917L564.912 131.683L562.052 155.883L564.038 156.117ZM565.905 132.8H590.325V130.8H565.905V132.8ZM589.333 131.926L592.413 156.126L594.397 155.874L591.317 131.674L589.333 131.926ZM593.405 157H616.725V155H593.405V157ZM617.715 155.857L595.495 1.63739L593.516 1.9226L615.736 156.143L617.715 155.857ZM577.233 34.0219L586.693 111.022L588.678 110.778L579.218 33.7781L577.233 34.0219ZM587.685 109.9H568.545V111.9H587.685V109.9ZM569.538 111.025L579.218 34.0247L577.233 33.7753L567.553 110.775L569.538 111.025ZM687.192 77.02L686.602 77.8271L686.606 77.8302L687.192 77.02ZM663.432 59.64L664.023 58.8329L664.014 58.8267L664.006 58.8208L663.432 59.64ZM677.292 57H676.292V58H677.292V57ZM700.392 57V58H701.392V57H700.392ZM647.152 77.02L647.743 76.2129L647.737 76.2084L647.73 76.204L647.152 77.02ZM670.912 94.4L671.513 93.5999L671.503 93.5929L670.912 94.4ZM656.392 96.38H657.392V95.38H656.392V96.38ZM633.512 96.38V95.38H632.512V96.38H633.512ZM687.783 76.2129L664.023 58.8329L662.842 60.4471L686.602 77.8271L687.783 76.2129ZM664.006 58.8208C661.865 57.3222 660.35 55.8849 659.354 54.1166C658.362 52.3555 657.832 50.173 657.832 47.1H655.832C655.832 50.4069 656.403 52.9544 657.611 55.0983C658.815 57.235 660.6 58.8778 662.859 60.4592L664.006 58.8208ZM657.832 47.1V29.94H655.832V47.1H657.832ZM657.832 29.94C657.832 27.1146 658.513 25.2187 659.712 24.0196C660.911 22.8205 662.807 22.14 665.632 22.14V20.14C662.518 20.14 660.014 20.8895 658.298 22.6054C656.582 24.3213 655.832 26.8254 655.832 29.94H657.832ZM665.632 22.14H668.492V20.14H665.632V22.14ZM668.492 22.14C671.318 22.14 673.214 22.8205 674.413 24.0196C675.612 25.2187 676.292 27.1146 676.292 29.94H678.292C678.292 26.8254 677.543 24.3213 675.827 22.6054C674.111 20.8895 671.607 20.14 668.492 20.14V22.14ZM676.292 29.94V57H678.292V29.94H676.292ZM677.292 58H700.392V56H677.292V58ZM701.392 57V29.06H699.392V57H701.392ZM701.392 29.06C701.392 19.4458 698.988 12.0516 694.005 7.06789C689.021 2.08421 681.627 -0.320007 672.012 -0.320007V1.67999C681.318 1.67999 688.114 4.00578 692.59 8.4821C697.067 12.9584 699.392 19.7541 699.392 29.06H701.392ZM672.012 -0.320007H662.112V1.67999H672.012V-0.320007ZM662.112 -0.320007C652.391 -0.320007 644.94 2.08275 639.928 7.09539C634.915 12.108 632.512 19.5588 632.512 29.28H634.512C634.512 19.8612 636.84 13.012 641.342 8.5096C645.844 4.00723 652.694 1.67999 662.112 1.67999V-0.320007ZM632.512 29.28V50.4H634.512V29.28H632.512ZM632.512 50.4C632.512 56.422 633.292 61.3776 635.476 65.8025C637.662 70.2319 641.207 74.0341 646.574 77.836L647.73 76.204C642.538 72.5259 639.263 68.9581 637.269 64.9174C635.273 60.8724 634.512 56.258 634.512 50.4H632.512ZM646.562 77.8271L670.322 95.2071L671.503 93.5929L647.743 76.2129L646.562 77.8271ZM670.312 95.2C672.475 96.8221 673.996 98.2636 674.994 100.011C675.984 101.743 676.512 103.869 676.512 106.94H678.512C678.512 103.631 677.941 101.137 676.731 99.0189C675.529 96.9164 673.75 95.2779 671.512 93.6L670.312 95.2ZM676.512 106.94V128.06H678.512V106.94H676.512ZM676.512 128.06C676.512 130.885 675.832 132.776 674.612 133.974C673.388 135.175 671.437 135.86 668.492 135.86V137.86C671.708 137.86 674.267 137.115 676.013 135.401C677.763 133.684 678.512 131.175 678.512 128.06H676.512ZM668.492 135.86H665.412V137.86H668.492V135.86ZM665.412 135.86C662.468 135.86 660.517 135.175 659.293 133.974C658.073 132.776 657.392 130.885 657.392 128.06H655.392C655.392 131.175 656.142 133.684 657.892 135.401C659.638 137.115 662.197 137.86 665.412 137.86V135.86ZM657.392 128.06V96.38H655.392V128.06H657.392ZM656.392 95.38H633.512V97.38H656.392V95.38ZM632.512 96.38V128.94H634.512V96.38H632.512ZM632.512 128.94C632.512 138.548 634.859 145.944 639.816 150.93C644.774 155.917 652.171 158.32 661.892 158.32V156.32C652.474 156.32 645.681 153.993 641.234 149.52C636.786 145.046 634.512 138.252 634.512 128.94H632.512ZM661.892 158.32H672.232V156.32H661.892V158.32ZM672.232 158.32C681.954 158.32 689.404 155.917 694.417 150.905C699.43 145.892 701.832 138.441 701.832 128.72H699.832C699.832 138.139 697.505 144.988 693.003 149.49C688.5 153.993 681.651 156.32 672.232 156.32V158.32ZM701.832 128.72V103.64H699.832V128.72H701.832ZM701.832 103.64C701.832 97.2869 700.998 92.3256 698.781 87.9782C696.564 83.6309 693.017 79.9993 687.779 76.2098L686.606 77.8302C691.708 81.5207 694.981 84.9291 696.999 88.8868C699.017 92.8444 699.832 97.453 699.832 103.64H701.832ZM53.5855 252.8L53.2477 251.859L50.5283 252.835L53.2693 253.749L53.5855 252.8ZM0.125541 178V177H-0.874459V178H0.125541ZM0.125541 332H-0.874459V333H0.125541V332ZM23.4455 243.56H22.4455V244.56H23.4455V243.56ZM23.4455 198.68V197.68H22.4455V198.68H23.4455ZM23.4455 263.58V262.58H22.4455V263.58H23.4455ZM23.4455 311.32H22.4455V312.32H23.4455V311.32ZM53.9234 253.741C58.3959 252.136 61.9005 249.525 64.2655 245.496C66.6154 241.493 67.7855 236.181 67.7855 229.26H65.7855C65.7855 235.979 64.6457 240.897 62.5406 244.484C60.4506 248.045 57.3552 250.384 53.2477 251.859L53.9234 253.741ZM67.7855 229.26V206.6H65.7855V229.26H67.7855ZM67.7855 206.6C67.7855 196.879 65.3828 189.428 60.3701 184.415C55.3575 179.403 47.9068 177 38.1855 177V179C47.6043 179 54.4536 181.327 58.9559 185.83C63.4583 190.332 65.7855 197.181 65.7855 206.6H67.7855ZM38.1855 177H0.125541V179H38.1855V177ZM-0.874459 178V332H1.12554V178H-0.874459ZM0.125541 333H38.6255V331H0.125541V333ZM38.6255 333C48.3468 333 55.7975 330.597 60.8102 325.585C65.8228 320.572 68.2255 313.121 68.2255 303.4H66.2255C66.2255 312.819 63.8983 319.668 59.3959 324.17C54.8936 328.673 48.0443 331 38.6255 331V333ZM68.2255 303.4V275.02H66.2255V303.4H68.2255ZM68.2255 275.02C68.2255 268.645 67.109 263.651 64.7182 259.832C62.3138 255.991 58.6902 253.447 53.9018 251.851L53.2693 253.749C57.7209 255.233 60.9173 257.529 63.0229 260.893C65.1421 264.279 66.2255 268.855 66.2255 275.02H68.2255ZM42.4655 207.48V233.88H44.4655V207.48H42.4655ZM42.4655 233.88C42.4655 237.043 41.7263 239.155 40.3934 240.488C39.0606 241.821 36.9488 242.56 33.7855 242.56V244.56C37.2223 244.56 39.9505 243.759 41.8076 241.902C43.6648 240.045 44.4655 237.317 44.4655 233.88H42.4655ZM33.7855 242.56H23.4455V244.56H33.7855V242.56ZM24.4455 243.56V198.68H22.4455V243.56H24.4455ZM23.4455 199.68H34.6655V197.68H23.4455V199.68ZM34.6655 199.68C37.4909 199.68 39.3868 200.36 40.5859 201.56C41.7851 202.759 42.4655 204.655 42.4655 207.48H44.4655C44.4655 204.365 43.716 201.861 42.0001 200.145C40.2843 198.43 37.7802 197.68 34.6655 197.68V199.68ZM23.4455 264.58H34.2255V262.58H23.4455V264.58ZM34.2255 264.58C37.3888 264.58 39.5006 265.319 40.8334 266.652C42.1663 267.985 42.9055 270.097 42.9055 273.26H44.9055C44.9055 269.823 44.1048 267.095 42.2477 265.238C40.3905 263.381 37.6623 262.58 34.2255 262.58V264.58ZM42.9055 273.26V302.52H44.9055V273.26H42.9055ZM42.9055 302.52C42.9055 305.345 42.2251 307.241 41.0259 308.44C39.8268 309.64 37.9309 310.32 35.1055 310.32V312.32C38.2202 312.32 40.7243 311.57 42.4402 309.855C44.156 308.139 44.9055 305.635 44.9055 302.52H42.9055ZM35.1055 310.32H23.4455V312.32H35.1055V310.32ZM24.4455 311.32V263.58H22.4455V311.32H24.4455ZM159.577 304.72V205.28H157.577V304.72H159.577ZM159.577 205.28C159.577 195.559 157.174 188.108 152.162 183.095C147.149 178.083 139.698 175.68 129.977 175.68V177.68C139.396 177.68 146.245 180.007 150.747 184.51C155.25 189.012 157.577 195.861 157.577 205.28H159.577ZM129.977 175.68H117.437V177.68H129.977V175.68ZM117.437 175.68C107.716 175.68 100.265 178.083 95.2525 183.095C90.2399 188.108 87.8371 195.559 87.8371 205.28H89.8371C89.8371 195.861 92.1643 189.012 96.6667 184.51C101.169 180.007 108.018 177.68 117.437 177.68V175.68ZM87.8371 205.28V304.72H89.8371V205.28H87.8371ZM87.8371 304.72C87.8371 314.441 90.2399 321.892 95.2525 326.905C100.265 331.917 107.716 334.32 117.437 334.32V332.32C108.018 332.32 101.169 329.993 96.6667 325.49C92.1643 320.988 89.8371 314.139 89.8371 304.72H87.8371ZM117.437 334.32H129.977V332.32H117.437V334.32ZM129.977 334.32C139.698 334.32 147.149 331.917 152.162 326.905C157.174 321.892 159.577 314.441 159.577 304.72H157.577C157.577 314.139 155.25 320.988 150.747 325.49C146.245 329.993 139.396 332.32 129.977 332.32V334.32ZM134.037 206.38V303.62H136.037V206.38H134.037ZM134.037 303.62C134.037 306.564 133.352 308.516 132.151 309.74C130.953 310.96 129.063 311.64 126.237 311.64V313.64C129.352 313.64 131.861 312.89 133.578 311.14C135.292 309.394 136.037 306.836 136.037 303.62H134.037ZM126.237 311.64H121.397V313.64H126.237V311.64ZM121.397 311.64C118.453 311.64 116.506 310.955 115.284 309.733C114.062 308.511 113.377 306.565 113.377 303.62H111.377C111.377 306.835 112.122 309.399 113.87 311.147C115.618 312.895 118.182 313.64 121.397 313.64V311.64ZM113.377 303.62V206.38H111.377V303.62H113.377ZM113.377 206.38C113.377 203.435 114.062 201.489 115.284 200.267C116.506 199.045 118.453 198.36 121.397 198.36V196.36C118.182 196.36 115.618 197.105 113.87 198.853C112.122 200.601 111.377 203.165 111.377 206.38H113.377ZM121.397 198.36H126.237V196.36H121.397V198.36ZM126.237 198.36C129.063 198.36 130.953 199.04 132.151 200.26C133.352 201.484 134.037 203.436 134.037 206.38H136.037C136.037 203.164 135.292 200.606 133.578 198.86C131.861 197.11 129.352 196.36 126.237 196.36V198.36ZM234.907 259.4L234.527 258.475L231.807 259.591L234.644 260.365L234.907 259.4ZM181.007 178V177H180.007V178H181.007ZM181.007 332H180.007V333H181.007V332ZM204.547 332V333H205.547V332H204.547ZM204.547 270.18V269.18H203.547V270.18H204.547ZM225.007 332H224.007V333H225.007V332ZM248.547 332V333H249.547V332H248.547ZM204.547 249.72H203.547V250.72H204.547V249.72ZM204.547 198.9V197.9H203.547V198.9H204.547ZM235.286 260.325C239.727 258.503 243.274 255.85 245.691 251.83C248.098 247.828 249.327 242.57 249.327 235.64H247.327C247.327 242.35 246.135 247.212 243.977 250.8C241.83 254.37 238.666 256.777 234.527 258.475L235.286 260.325ZM249.327 235.64V206.6H247.327V235.64H249.327ZM249.327 206.6C249.327 196.879 246.924 189.428 241.911 184.415C236.899 179.403 229.448 177 219.727 177V179C229.146 179 235.995 181.327 240.497 185.83C245 190.332 247.327 197.181 247.327 206.6H249.327ZM219.727 177H181.007V179H219.727V177ZM180.007 178V332H182.007V178H180.007ZM181.007 333H204.547V331H181.007V333ZM205.547 332V270.18H203.547V332H205.547ZM204.547 271.18H215.107V269.18H204.547V271.18ZM215.107 271.18C218.388 271.18 220.551 271.923 221.907 273.28C223.264 274.636 224.007 276.799 224.007 280.08H226.007C226.007 276.541 225.21 273.754 223.321 271.865C221.433 269.977 218.645 269.18 215.107 269.18V271.18ZM224.007 280.08V332H226.007V280.08H224.007ZM225.007 333H248.547V331H225.007V333ZM249.547 332V279.64H247.547V332H249.547ZM249.547 279.64C249.547 273.714 248.544 269.086 246.187 265.58C243.814 262.05 240.164 259.797 235.17 258.435L234.644 260.365C239.329 261.643 242.5 263.68 244.527 266.695C246.57 269.734 247.547 273.906 247.547 279.64H249.547ZM223.787 207.7V240.26H225.787V207.7H223.787ZM223.787 240.26C223.787 243.305 223.052 245.361 221.721 246.669C220.386 247.981 218.27 248.72 215.107 248.72V250.72C218.544 250.72 221.267 249.919 223.123 248.096C224.982 246.269 225.787 243.595 225.787 240.26H223.787ZM215.107 248.72H204.547V250.72H215.107V248.72ZM205.547 249.72V198.9H203.547V249.72H205.547ZM204.547 199.9H215.987V197.9H204.547V199.9ZM215.987 199.9C218.812 199.9 220.708 200.58 221.907 201.78C223.106 202.979 223.787 204.875 223.787 207.7H225.787C225.787 204.585 225.037 202.081 223.321 200.365C221.606 198.65 219.101 197.9 215.987 197.9V199.9ZM320.518 273.7L319.543 273.924L321.518 273.698L320.518 273.7ZM298.518 178L299.492 177.776L299.314 177H298.518V178ZM271.018 178V177H270.018V178H271.018ZM271.018 332H270.018V333H271.018V332ZM292.138 332V333H293.14L293.138 331.998L292.138 332ZM291.918 228.16L292.892 227.935L290.918 228.162L291.918 228.16ZM315.898 332L314.923 332.225L315.102 333H315.898V332ZM341.418 332V333H342.418V332H341.418ZM341.418 178H342.418V177H341.418V178ZM320.298 178V177H319.295L319.298 178.002L320.298 178ZM321.492 273.476L299.492 177.776L297.543 178.224L319.543 273.924L321.492 273.476ZM298.518 177H271.018V179H298.518V177ZM270.018 178V332H272.018V178H270.018ZM271.018 333H292.138V331H271.018V333ZM293.138 331.998L292.918 228.158L290.918 228.162L291.138 332.002L293.138 331.998ZM290.943 228.385L314.923 332.225L316.872 331.775L292.892 227.935L290.943 228.385ZM315.898 333H341.418V331H315.898V333ZM342.418 332V178H340.418V332H342.418ZM341.418 177H320.298V179H341.418V177ZM319.298 178.002L319.518 273.702L321.518 273.698L321.298 177.998L319.298 178.002ZM469.401 178H470.401V177H469.401V178ZM445.861 178V177H444.861V178H445.861ZM424.301 178H425.301V177H424.301V178ZM400.761 178V177H399.761V178H400.761ZM469.401 177H445.861V179H469.401V177ZM444.861 178V303.62H446.861V178H444.861ZM444.861 303.62C444.861 306.564 444.176 308.516 442.975 309.74C441.777 310.96 439.886 311.64 437.061 311.64V313.64C440.176 313.64 442.685 312.89 444.402 311.14C446.116 309.394 446.861 306.836 446.861 303.62H444.861ZM437.061 311.64H433.321V313.64H437.061V311.64ZM433.321 311.64C430.376 311.64 428.43 310.955 427.208 309.733C425.986 308.511 425.301 306.565 425.301 303.62H423.301C423.301 306.835 424.046 309.399 425.794 311.147C427.542 312.895 430.106 313.64 433.321 313.64V311.64ZM425.301 303.62V178H423.301V303.62H425.301ZM424.301 177H400.761V179H424.301V177ZM399.761 178V304.72H401.761V178H399.761ZM399.761 304.72C399.761 314.441 402.164 321.892 407.176 326.905C412.189 331.917 419.64 334.32 429.361 334.32V332.32C419.942 332.32 413.093 329.993 408.591 325.49C404.088 320.988 401.761 314.139 401.761 304.72H399.761ZM429.361 334.32H440.801V332.32H429.361V334.32ZM440.801 334.32C450.522 334.32 457.973 331.917 462.986 326.905C467.998 321.892 470.401 314.441 470.401 304.72H468.401C468.401 314.139 466.074 320.988 461.571 325.49C457.069 329.993 450.22 332.32 440.801 332.32V334.32ZM470.401 304.72V178H468.401V304.72H470.401ZM545.966 259.4L545.587 258.475L542.866 259.591L545.703 260.365L545.966 259.4ZM492.066 178V177H491.066V178H492.066ZM492.066 332H491.066V333H492.066V332ZM515.606 332V333H516.606V332H515.606ZM515.606 270.18V269.18H514.606V270.18H515.606ZM536.066 332H535.066V333H536.066V332ZM559.606 332V333H560.606V332H559.606ZM515.606 249.72H514.606V250.72H515.606V249.72ZM515.606 198.9V197.9H514.606V198.9H515.606ZM546.346 260.325C550.787 258.503 554.333 255.85 556.751 251.83C559.158 247.828 560.386 242.57 560.386 235.64H558.386C558.386 242.35 557.195 247.212 555.037 250.8C552.889 254.37 549.726 256.777 545.587 258.475L546.346 260.325ZM560.386 235.64V206.6H558.386V235.64H560.386ZM560.386 206.6C560.386 196.879 557.983 189.428 552.971 184.415C547.958 179.403 540.507 177 530.786 177V179C540.205 179 547.054 181.327 551.557 185.83C556.059 190.332 558.386 197.181 558.386 206.6H560.386ZM530.786 177H492.066V179H530.786V177ZM491.066 178V332H493.066V178H491.066ZM492.066 333H515.606V331H492.066V333ZM516.606 332V270.18H514.606V332H516.606ZM515.606 271.18H526.166V269.18H515.606V271.18ZM526.166 271.18C529.448 271.18 531.61 271.923 532.967 273.28C534.323 274.636 535.066 276.799 535.066 280.08H537.066C537.066 276.541 536.269 273.754 534.381 271.865C532.492 269.977 529.705 269.18 526.166 269.18V271.18ZM535.066 280.08V332H537.066V280.08H535.066ZM536.066 333H559.606V331H536.066V333ZM560.606 332V279.64H558.606V332H560.606ZM560.606 279.64C560.606 273.714 559.603 269.086 557.246 265.58C554.873 262.05 551.224 259.797 546.229 258.435L545.703 260.365C550.389 261.643 553.559 263.68 555.586 266.695C557.629 269.734 558.606 273.906 558.606 279.64H560.606ZM534.846 207.7V240.26H536.846V207.7H534.846ZM534.846 240.26C534.846 243.305 534.111 245.361 532.78 246.669C531.446 247.981 529.329 248.72 526.166 248.72V250.72C529.603 250.72 532.327 249.919 534.182 248.096C536.041 246.269 536.846 243.595 536.846 240.26H534.846ZM526.166 248.72H515.606V250.72H526.166V248.72ZM516.606 249.72V198.9H514.606V249.72H516.606ZM515.606 199.9H527.046V197.9H515.606V199.9ZM527.046 199.9C529.872 199.9 531.767 200.58 532.967 201.78C534.166 202.979 534.846 204.875 534.846 207.7H536.846C536.846 204.585 536.097 202.081 534.381 200.365C532.665 198.65 530.161 197.9 527.046 197.9V199.9ZM635.537 252.8L635.199 251.859L632.48 252.835L635.221 253.749L635.537 252.8ZM582.077 178V177H581.077V178H582.077ZM582.077 332H581.077V333H582.077V332ZM605.397 243.56H604.397V244.56H605.397V243.56ZM605.397 198.68V197.68H604.397V198.68H605.397ZM605.397 263.58V262.58H604.397V263.58H605.397ZM605.397 311.32H604.397V312.32H605.397V311.32ZM635.875 253.741C640.347 252.136 643.852 249.525 646.217 245.496C648.567 241.493 649.737 236.181 649.737 229.26H647.737C647.737 235.979 646.597 240.897 644.492 244.484C642.402 248.045 639.307 250.384 635.199 251.859L635.875 253.741ZM649.737 229.26V206.6H647.737V229.26H649.737ZM649.737 206.6C649.737 196.879 647.334 189.428 642.322 184.415C637.309 179.403 629.858 177 620.137 177V179C629.556 179 636.405 181.327 640.908 185.83C645.41 190.332 647.737 197.181 647.737 206.6H649.737ZM620.137 177H582.077V179H620.137V177ZM581.077 178V332H583.077V178H581.077ZM582.077 333H620.577V331H582.077V333ZM620.577 333C630.298 333 637.749 330.597 642.762 325.585C647.774 320.572 650.177 313.121 650.177 303.4H648.177C648.177 312.819 645.85 319.668 641.348 324.17C636.845 328.673 629.996 331 620.577 331V333ZM650.177 303.4V275.02H648.177V303.4H650.177ZM650.177 275.02C650.177 268.645 649.061 263.651 646.67 259.832C644.265 255.991 640.642 253.447 635.853 251.851L635.221 253.749C639.672 255.233 642.869 257.529 644.974 260.893C647.094 264.279 648.177 268.855 648.177 275.02H650.177ZM624.417 207.48V233.88H626.417V207.48H624.417ZM624.417 233.88C624.417 237.043 623.678 239.155 622.345 240.488C621.012 241.821 618.9 242.56 615.737 242.56V244.56C619.174 244.56 621.902 243.759 623.759 241.902C625.616 240.045 626.417 237.317 626.417 233.88H624.417ZM615.737 242.56H605.397V244.56H615.737V242.56ZM606.397 243.56V198.68H604.397V243.56H606.397ZM605.397 199.68H616.617V197.68H605.397V199.68ZM616.617 199.68C619.443 199.68 621.338 200.36 622.537 201.56C623.737 202.759 624.417 204.655 624.417 207.48H626.417C626.417 204.365 625.668 201.861 623.952 200.145C622.236 198.43 619.732 197.68 616.617 197.68V199.68ZM605.397 264.58H616.177V262.58H605.397V264.58ZM616.177 264.58C619.34 264.58 621.452 265.319 622.785 266.652C624.118 267.985 624.857 270.097 624.857 273.26H626.857C626.857 269.823 626.056 267.095 624.199 265.238C622.342 263.381 619.614 262.58 616.177 262.58V264.58ZM624.857 273.26V302.52H626.857V273.26H624.857ZM624.857 302.52C624.857 305.345 624.177 307.241 622.977 308.44C621.778 309.64 619.883 310.32 617.057 310.32V312.32C620.172 312.32 622.676 311.57 624.392 309.855C626.108 308.139 626.857 305.635 626.857 302.52H624.857ZM617.057 310.32H605.397V312.32H617.057V310.32ZM606.397 311.32V263.58H604.397V311.32H606.397ZM718.78 177.78L719.769 177.637L719.646 176.78H718.78V177.78ZM687.54 177.78V176.78H686.672L686.55 177.639L687.54 177.78ZM665.54 332L664.55 331.859L664.387 333H665.54V332ZM687.32 332V333H688.208L688.313 332.117L687.32 332ZM690.18 307.8V306.8H689.291L689.187 307.683L690.18 307.8ZM714.6 307.8L715.592 307.674L715.48 306.8H714.6V307.8ZM717.68 332L716.688 332.126L716.799 333H717.68V332ZM741 332V333H742.154L741.989 331.857L741 332ZM702.5 209.9L703.492 209.778L701.507 209.775L702.5 209.9ZM711.96 286.9V287.9H713.09L712.952 286.778L711.96 286.9ZM692.82 286.9L691.827 286.775L691.686 287.9H692.82V286.9ZM718.78 176.78H687.54V178.78H718.78V176.78ZM686.55 177.639L664.55 331.859L666.53 332.141L688.53 177.921L686.55 177.639ZM665.54 333H687.32V331H665.54V333ZM688.313 332.117L691.173 307.917L689.187 307.683L686.327 331.883L688.313 332.117ZM690.18 308.8H714.6V306.8H690.18V308.8ZM713.608 307.926L716.688 332.126L718.672 331.874L715.592 307.674L713.608 307.926ZM717.68 333H741V331H717.68V333ZM741.989 331.857L719.769 177.637L717.79 177.923L740.01 332.143L741.989 331.857ZM701.507 210.022L710.967 287.022L712.952 286.778L703.492 209.778L701.507 210.022ZM711.96 285.9H692.82V287.9H711.96V285.9ZM693.812 287.025L703.492 210.025L701.507 209.775L691.827 286.775L693.812 287.025ZM809.021 273.7L808.046 273.924L810.021 273.698L809.021 273.7ZM787.021 178L787.995 177.776L787.817 177H787.021V178ZM759.521 178V177H758.521V178H759.521ZM759.521 332H758.521V333H759.521V332ZM780.641 332V333H781.643L781.641 331.998L780.641 332ZM780.421 228.16L781.395 227.935L779.421 228.162L780.421 228.16ZM804.401 332L803.426 332.225L803.605 333H804.401V332ZM829.921 332V333H830.921V332H829.921ZM829.921 178H830.921V177H829.921V178ZM808.801 178V177H807.799L807.801 178.002L808.801 178ZM809.995 273.476L787.995 177.776L786.046 178.224L808.046 273.924L809.995 273.476ZM787.021 177H759.521V179H787.021V177ZM758.521 178V332H760.521V178H758.521ZM759.521 333H780.641V331H759.521V333ZM781.641 331.998L781.421 228.158L779.421 228.162L779.641 332.002L781.641 331.998ZM779.446 228.385L803.426 332.225L805.375 331.775L781.395 227.935L779.446 228.385ZM804.401 333H829.921V331H804.401V333ZM830.921 332V178H828.921V332H830.921ZM829.921 177H808.801V179H829.921V177ZM807.801 178.002L808.021 273.702L810.021 273.698L809.801 177.998L807.801 178.002Z" fill="white"/>
</svg>
