<svg width="512" height="334" viewBox="0 0 512 334" fill="none" xmlns="http://www.w3.org/2000/svg">
<path d="M38.1811 77.02L14.4211 59.64C10.0211 56.56 7.82109 53.48 7.82109 47.1V29.94C7.82109 24 10.6811 21.14 16.6211 21.14H19.4811C25.4211 21.14 28.2811 24 28.2811 29.94V57H51.3811V29.06C51.3811 10.14 41.9211 0.679993 23.0011 0.679993H13.1011C-6.03891 0.679993 -15.4989 10.14 -15.4989 29.28V50.4C-15.4989 62.28 -12.4189 69.54 -1.85891 77.02L21.9011 94.4C26.3011 97.7 28.5011 100.56 28.5011 106.94V128.06C28.5011 134 25.6411 136.86 19.4811 136.86H16.4011C10.2411 136.86 7.38109 134 7.38109 128.06V96.38H-15.4989V128.94C-15.4989 147.86 -6.25891 157.32 12.8811 157.32H23.2211C42.3611 157.32 51.8211 147.86 51.8211 128.72V103.64C51.8211 91.1 48.5211 84.5 38.1811 77.02ZM108.653 1.99999H73.4533V156H93.6933V40.06L110.633 156H133.513L150.453 40.5V156H173.553V1.99999H138.573L123.613 110.46L108.653 1.99999ZM265.635 128.72V29.28C265.635 10.14 256.175 0.679993 237.035 0.679993H224.495C205.355 0.679993 195.895 10.14 195.895 29.28V128.72C195.895 147.86 205.355 157.32 224.495 157.32H237.035C256.175 157.32 265.635 147.86 265.635 128.72ZM242.095 30.38V127.62C242.095 133.78 239.235 136.64 233.295 136.64H228.455C222.295 136.64 219.435 133.78 219.435 127.62V30.38C219.435 24.22 222.295 21.36 228.455 21.36H233.295C239.235 21.36 242.095 24.22 242.095 30.38ZM357.365 128.72V29.28C357.365 10.14 347.905 0.679993 328.765 0.679993H316.225C297.085 0.679993 287.625 10.14 287.625 29.28V128.72C287.625 147.86 297.085 157.32 316.225 157.32H328.765C347.905 157.32 357.365 147.86 357.365 128.72ZM333.825 30.38V127.62C333.825 133.78 330.965 136.64 325.025 136.64H320.185C314.025 136.64 311.165 133.78 311.165 127.62V30.38C311.165 24.22 314.025 21.36 320.185 21.36H325.025C330.965 21.36 333.825 24.22 333.825 30.38ZM417.896 156V23.34H439.016V1.99999H373.236V23.34H394.356V156H417.896ZM480.67 66.9V1.99999H457.13V156H480.67V88.24H503.33V156H526.87V1.99999H503.33V66.9H480.67ZM-52.6772 178H-87.8772V332H-67.6372V216.06L-50.6972 332H-27.8172L-10.8772 216.5V332H12.2228V178H-22.7572L-37.7172 286.46L-52.6772 178ZM35.0049 178V332H87.8049V310.66H58.5449V264.24H86.2649V242.9H58.5449V199.34H87.3649V178H35.0049ZM144.317 178H109.117V332H129.357V216.06L146.297 332H169.177L186.117 216.5V332H209.217V178H174.237L159.277 286.46L144.317 178ZM301.299 304.72V205.28C301.299 186.14 291.839 176.68 272.699 176.68H260.159C241.019 176.68 231.559 186.14 231.559 205.28V304.72C231.559 323.86 241.019 333.32 260.159 333.32H272.699C291.839 333.32 301.299 323.86 301.299 304.72ZM277.759 206.38V303.62C277.759 309.78 274.899 312.64 268.959 312.64H264.119C257.959 312.64 255.099 309.78 255.099 303.62V206.38C255.099 200.22 257.959 197.36 264.119 197.36H268.959C274.899 197.36 277.759 200.22 277.759 206.38ZM377.629 259.4C386.209 255.88 391.049 249.28 391.049 235.64V206.6C391.049 187.46 381.589 178 362.449 178H323.729V332H347.269V270.18H357.829C364.649 270.18 367.729 273.26 367.729 280.08V332H391.269V279.64C391.269 267.98 387.309 262.04 377.629 259.4ZM367.509 207.7V240.26C367.509 246.64 364.429 249.72 357.829 249.72H347.269V198.9H358.709C364.649 198.9 367.509 201.76 367.509 207.7ZM437.5 178H413.96V332H437.5V178ZM460.567 178V332H513.367V310.66H484.107V264.24H511.827V242.9H484.107V199.34H512.927V178H460.567ZM587.485 253.02L563.725 235.64C559.325 232.56 557.125 229.48 557.125 223.1V205.94C557.125 200 559.985 197.14 565.925 197.14H568.785C574.725 197.14 577.585 200 577.585 205.94V233H600.685V205.06C600.685 186.14 591.225 176.68 572.305 176.68H562.405C543.265 176.68 533.805 186.14 533.805 205.28V226.4C533.805 238.28 536.885 245.54 547.445 253.02L571.205 270.4C575.605 273.7 577.805 276.56 577.805 282.94V304.06C577.805 310 574.945 312.86 568.785 312.86H565.705C559.545 312.86 556.685 310 556.685 304.06V272.38H533.805V304.94C533.805 323.86 543.045 333.32 562.185 333.32H572.525C591.665 333.32 601.125 323.86 601.125 304.72V279.64C601.125 267.1 597.825 260.5 587.485 253.02Z" fill="white"/>
</svg>
