<svg width="764" height="332" viewBox="0 0 764 332" fill="none" xmlns="http://www.w3.org/2000/svg">
<path d="M44.969 154V155H45.969V154H44.969ZM44.969 21.34V20.34H43.969V21.34H44.969ZM66.089 21.34V22.34H67.089V21.34H66.089ZM66.089 -1.04904e-05H67.089V-1.00001H66.089V-1.04904e-05ZM0.308978 -1.04904e-05V-1.00001H-0.691022V-1.04904e-05H0.308978ZM0.308978 21.34H-0.691022V22.34H0.308978V21.34ZM21.429 21.34H22.429V20.34H21.429V21.34ZM21.429 154H20.429V155H21.429V154ZM45.969 154V21.34H43.969V154H45.969ZM44.969 22.34H66.089V20.34H44.969V22.34ZM67.089 21.34V-1.04904e-05H65.089V21.34H67.089ZM66.089 -1.00001H0.308978V0.99999H66.089V-1.00001ZM-0.691022 -1.04904e-05V21.34H1.30898V-1.04904e-05H-0.691022ZM0.308978 22.34H21.429V20.34H0.308978V22.34ZM20.429 21.34V154H22.429V21.34H20.429ZM21.429 155H44.969V153H21.429V155ZM107.743 64.9H106.743V65.9H107.743V64.9ZM107.743 -1.04904e-05H108.743V-1.00001H107.743V-1.04904e-05ZM84.2029 -1.04904e-05V-1.00001H83.2029V-1.04904e-05H84.2029ZM84.2029 154H83.2029V155H84.2029V154ZM107.743 154V155H108.743V154H107.743ZM107.743 86.24V85.24H106.743V86.24H107.743ZM130.403 86.24H131.403V85.24H130.403V86.24ZM130.403 154H129.403V155H130.403V154ZM153.943 154V155H154.943V154H153.943ZM153.943 -1.04904e-05H154.943V-1.00001H153.943V-1.04904e-05ZM130.403 -1.04904e-05V-1.00001H129.403V-1.04904e-05H130.403ZM130.403 64.9V65.9H131.403V64.9H130.403ZM108.743 64.9V-1.04904e-05H106.743V64.9H108.743ZM107.743 -1.00001H84.2029V0.99999H107.743V-1.00001ZM83.2029 -1.04904e-05V154H85.2029V-1.04904e-05H83.2029ZM84.2029 155H107.743V153H84.2029V155ZM108.743 154V86.24H106.743V154H108.743ZM107.743 87.24H130.403V85.24H107.743V87.24ZM129.403 86.24V154H131.403V86.24H129.403ZM130.403 155H153.943V153H130.403V155ZM154.943 154V-1.04904e-05H152.943V154H154.943ZM153.943 -1.00001H130.403V0.99999H153.943V-1.00001ZM129.403 -1.04904e-05V64.9H131.403V-1.04904e-05H129.403ZM130.403 63.9H107.743V65.9H130.403V63.9ZM176.792 -1.04904e-05V-1.00001H175.792V-1.04904e-05H176.792ZM176.792 154H175.792V155H176.792V154ZM229.592 154V155H230.592V154H229.592ZM229.592 132.66H230.592V131.66H229.592V132.66ZM200.332 132.66H199.332V133.66H200.332V132.66ZM200.332 86.24V85.24H199.332V86.24H200.332ZM228.052 86.24V87.24H229.052V86.24H228.052ZM228.052 64.9H229.052V63.9H228.052V64.9ZM200.332 64.9H199.332V65.9H200.332V64.9ZM200.332 21.34V20.34H199.332V21.34H200.332ZM229.152 21.34V22.34H230.152V21.34H229.152ZM229.152 -1.04904e-05H230.152V-1.00001H229.152V-1.04904e-05ZM175.792 -1.04904e-05V154H177.792V-1.04904e-05H175.792ZM176.792 155H229.592V153H176.792V155ZM230.592 154V132.66H228.592V154H230.592ZM229.592 131.66H200.332V133.66H229.592V131.66ZM201.332 132.66V86.24H199.332V132.66H201.332ZM200.332 87.24H228.052V85.24H200.332V87.24ZM229.052 86.24V64.9H227.052V86.24H229.052ZM228.052 63.9H200.332V65.9H228.052V63.9ZM201.332 64.9V21.34H199.332V64.9H201.332ZM200.332 22.34H229.152V20.34H200.332V22.34ZM230.152 21.34V-1.04904e-05H228.152V21.34H230.152ZM229.152 -1.00001H176.792V0.99999H229.152V-1.00001ZM287.634 -1.04904e-05V-1.00001H286.634V-1.04904e-05H287.634ZM287.634 154H286.634V155H287.634V154ZM311.174 154V155H312.174V154H311.174ZM311.174 87.12V86.12H310.174V87.12H311.174ZM337.794 87.12V88.12H338.794V87.12H337.794ZM337.794 65.78H338.794V64.78H337.794V65.78ZM311.174 65.78H310.174V66.78H311.174V65.78ZM311.174 21.34V20.34H310.174V21.34H311.174ZM338.894 21.34V22.34H339.894V21.34H338.894ZM338.894 -1.04904e-05H339.894V-1.00001H338.894V-1.04904e-05ZM286.634 -1.04904e-05V154H288.634V-1.04904e-05H286.634ZM287.634 155H311.174V153H287.634V155ZM312.174 154V87.12H310.174V154H312.174ZM311.174 88.12H337.794V86.12H311.174V88.12ZM338.794 87.12V65.78H336.794V87.12H338.794ZM337.794 64.78H311.174V66.78H337.794V64.78ZM312.174 65.78V21.34H310.174V65.78H312.174ZM311.174 22.34H338.894V20.34H311.174V22.34ZM339.894 21.34V-1.04904e-05H337.894V21.34H339.894ZM338.894 -1.00001H287.634V0.99999H338.894V-1.00001ZM427.803 -1.04904e-05H428.803V-1.00001H427.803V-1.04904e-05ZM404.263 -1.04904e-05V-1.00001H403.263V-1.04904e-05H404.263ZM382.703 -1.04904e-05H383.703V-1.00001H382.703V-1.04904e-05ZM359.163 -1.04904e-05V-1.00001H358.163V-1.04904e-05H359.163ZM427.803 -1.00001H404.263V0.99999H427.803V-1.00001ZM403.263 -1.04904e-05V125.62H405.263V-1.04904e-05H403.263ZM403.263 125.62C403.263 128.564 402.578 130.516 401.377 131.74C400.18 132.96 398.289 133.64 395.463 133.64V135.64C398.578 135.64 401.087 134.89 402.805 133.14C404.518 131.394 405.263 128.836 405.263 125.62H403.263ZM395.463 133.64H391.723V135.64H395.463V133.64ZM391.723 133.64C388.779 133.64 386.833 132.955 385.61 131.733C384.388 130.511 383.703 128.565 383.703 125.62H381.703C381.703 128.835 382.448 131.399 384.196 133.147C385.944 134.895 388.508 135.64 391.723 135.64V133.64ZM383.703 125.62V-1.04904e-05H381.703V125.62H383.703ZM382.703 -1.00001H359.163V0.99999H382.703V-1.00001ZM358.163 -1.04904e-05V126.72H360.163V-1.04904e-05H358.163ZM358.163 126.72C358.163 136.441 360.566 143.892 365.579 148.905C370.591 153.917 378.042 156.32 387.763 156.32V154.32C378.345 154.32 371.495 151.993 366.993 147.49C362.491 142.988 360.163 136.139 360.163 126.72H358.163ZM387.763 156.32H399.203V154.32H387.763V156.32ZM399.203 156.32C408.925 156.32 416.375 153.917 421.388 148.905C426.401 143.892 428.803 136.441 428.803 126.72H426.803C426.803 136.139 424.476 142.988 419.974 147.49C415.471 151.993 408.622 154.32 399.203 154.32V156.32ZM428.803 126.72V-1.04904e-05H426.803V126.72H428.803ZM490.289 154V155H491.289V154H490.289ZM490.289 21.34V20.34H489.289V21.34H490.289ZM511.409 21.34V22.34H512.409V21.34H511.409ZM511.409 -1.04904e-05H512.409V-1.00001H511.409V-1.04904e-05ZM445.629 -1.04904e-05V-1.00001H444.629V-1.04904e-05H445.629ZM445.629 21.34H444.629V22.34H445.629V21.34ZM466.749 21.34H467.749V20.34H466.749V21.34ZM466.749 154H465.749V155H466.749V154ZM491.289 154V21.34H489.289V154H491.289ZM490.289 22.34H511.409V20.34H490.289V22.34ZM512.409 21.34V-1.04904e-05H510.409V21.34H512.409ZM511.409 -1.00001H445.629V0.99999H511.409V-1.00001ZM444.629 -1.04904e-05V21.34H446.629V-1.04904e-05H444.629ZM445.629 22.34H466.749V20.34H445.629V22.34ZM465.749 21.34V154H467.749V21.34H465.749ZM466.749 155H490.289V153H466.749V155ZM597.942 -1.04904e-05H598.942V-1.00001H597.942V-1.04904e-05ZM574.402 -1.04904e-05V-1.00001H573.402V-1.04904e-05H574.402ZM552.842 -1.04904e-05H553.842V-1.00001H552.842V-1.04904e-05ZM529.302 -1.04904e-05V-1.00001H528.302V-1.04904e-05H529.302ZM597.942 -1.00001H574.402V0.99999H597.942V-1.00001ZM573.402 -1.04904e-05V125.62H575.402V-1.04904e-05H573.402ZM573.402 125.62C573.402 128.564 572.718 130.516 571.516 131.74C570.319 132.96 568.428 133.64 565.602 133.64V135.64C568.717 135.64 571.226 134.89 572.944 133.14C574.657 131.394 575.402 128.836 575.402 125.62H573.402ZM565.602 133.64H561.862V135.64H565.602V133.64ZM561.862 133.64C558.918 133.64 556.972 132.955 555.75 131.733C554.527 130.511 553.842 128.565 553.842 125.62H551.842C551.842 128.835 552.588 131.399 554.335 133.147C556.083 134.895 558.647 135.64 561.862 135.64V133.64ZM553.842 125.62V-1.04904e-05H551.842V125.62H553.842ZM552.842 -1.00001H529.302V0.99999H552.842V-1.00001ZM528.302 -1.04904e-05V126.72H530.302V-1.04904e-05H528.302ZM528.302 126.72C528.302 136.441 530.705 143.892 535.718 148.905C540.73 153.917 548.181 156.32 557.902 156.32V154.32C548.484 154.32 541.634 151.993 537.132 147.49C532.63 142.988 530.302 136.139 530.302 126.72H528.302ZM557.902 156.32H569.342V154.32H557.902V156.32ZM569.342 156.32C579.064 156.32 586.514 153.917 591.527 148.905C596.54 143.892 598.942 136.441 598.942 126.72H596.942C596.942 136.139 594.615 142.988 590.113 147.49C585.61 151.993 578.761 154.32 569.342 154.32V156.32ZM598.942 126.72V-1.04904e-05H596.942V126.72H598.942ZM674.508 81.4L674.128 80.4748L671.407 81.591L674.245 82.3648L674.508 81.4ZM620.608 -1.04904e-05V-1.00001H619.608V-1.04904e-05H620.608ZM620.608 154H619.608V155H620.608V154ZM644.148 154V155H645.148V154H644.148ZM644.148 92.18V91.18H643.148V92.18H644.148ZM664.608 154H663.608V155H664.608V154ZM688.148 154V155H689.148V154H688.148ZM644.148 71.72H643.148V72.72H644.148V71.72ZM644.148 20.9V19.9H643.148V20.9H644.148ZM674.887 82.3252C679.328 80.5032 682.875 77.8498 685.292 73.8304C687.699 69.8281 688.928 64.5699 688.928 57.64H686.928C686.928 64.3501 685.736 69.2119 683.578 72.7996C681.431 76.3702 678.267 78.7768 674.128 80.4748L674.887 82.3252ZM688.928 57.64V28.6H686.928V57.64H688.928ZM688.928 28.6C688.928 18.8788 686.525 11.428 681.512 6.41539C676.5 1.40275 669.049 -1.00001 659.328 -1.00001V0.99999C668.746 0.99999 675.596 3.32723 680.098 7.8296C684.6 12.332 686.928 19.1812 686.928 28.6H688.928ZM659.328 -1.00001H620.608V0.99999H659.328V-1.00001ZM619.608 -1.04904e-05V154H621.608V-1.04904e-05H619.608ZM620.608 155H644.148V153H620.608V155ZM645.148 154V92.18H643.148V154H645.148ZM644.148 93.18H654.708V91.18H644.148V93.18ZM654.708 93.18C657.989 93.18 660.152 93.9231 661.508 95.2796C662.865 96.6361 663.608 98.7986 663.608 102.08H665.608C665.608 98.5414 664.811 95.7539 662.922 93.8654C661.034 91.9769 658.246 91.18 654.708 91.18V93.18ZM663.608 102.08V154H665.608V102.08H663.608ZM664.608 155H688.148V153H664.608V155ZM689.148 154V101.64H687.148V154H689.148ZM689.148 101.64C689.148 95.7141 688.144 91.0856 685.788 87.5796C683.415 84.0501 679.765 81.7973 674.771 80.4352L674.245 82.3648C678.93 83.6427 682.101 85.6799 684.128 88.6954C686.171 91.7344 687.148 95.9059 687.148 101.64H689.148ZM663.388 29.7V62.26H665.388V29.7H663.388ZM663.388 62.26C663.388 65.3047 662.653 67.3613 661.322 68.6693C659.987 69.9807 657.871 70.72 654.708 70.72V72.72C658.145 72.72 660.868 71.9193 662.724 70.0957C664.583 68.2687 665.388 65.5952 665.388 62.26H663.388ZM654.708 70.72H644.148V72.72H654.708V70.72ZM645.148 71.72V20.9H643.148V71.72H645.148ZM644.148 21.9H655.588V19.9H644.148V21.9ZM655.588 21.9C658.413 21.9 660.309 22.5805 661.508 23.7796C662.707 24.9787 663.388 26.8746 663.388 29.7H665.388C665.388 26.5854 664.638 24.0813 662.922 22.3654C661.206 20.6495 658.702 19.9 655.588 19.9V21.9ZM710.618 -1.04904e-05V-1.00001H709.618V-1.04904e-05H710.618ZM710.618 154H709.618V155H710.618V154ZM763.419 154V155H764.419V154H763.419ZM763.419 132.66H764.419V131.66H763.419V132.66ZM734.159 132.66H733.159V133.66H734.159V132.66ZM734.159 86.24V85.24H733.159V86.24H734.159ZM761.878 86.24V87.24H762.878V86.24H761.878ZM761.878 64.9H762.878V63.9H761.878V64.9ZM734.159 64.9H733.159V65.9H734.159V64.9ZM734.159 21.34V20.34H733.159V21.34H734.159ZM762.979 21.34V22.34H763.979V21.34H762.979ZM762.979 -1.04904e-05H763.979V-1.00001H762.979V-1.04904e-05ZM709.618 -1.04904e-05V154H711.618V-1.04904e-05H709.618ZM710.618 155H763.419V153H710.618V155ZM764.419 154V132.66H762.419V154H764.419ZM763.419 131.66H734.159V133.66H763.419V131.66ZM735.159 132.66V86.24H733.159V132.66H735.159ZM734.159 87.24H761.878V85.24H734.159V87.24ZM762.878 86.24V64.9H760.878V86.24H762.878ZM761.878 63.9H734.159V65.9H761.878V63.9ZM735.159 64.9V21.34H733.159V64.9H735.159ZM734.159 22.34H762.979V20.34H734.159V22.34ZM763.979 21.34V-1.04904e-05H761.979V21.34H763.979ZM762.979 -1.00001H710.618V0.99999H762.979V-1.00001ZM140.377 176H141.377V175H140.377V176ZM116.837 176V175H115.837V176H116.837ZM95.2768 176H96.2768V175H95.2768V176ZM71.7368 176V175H70.7368V176H71.7368ZM140.377 175H116.837V177H140.377V175ZM115.837 176V301.62H117.837V176H115.837ZM115.837 301.62C115.837 304.564 115.152 306.516 113.951 307.74C112.753 308.96 110.862 309.64 108.037 309.64V311.64C111.151 311.64 113.661 310.89 115.378 309.14C117.092 307.394 117.837 304.836 117.837 301.62H115.837ZM108.037 309.64H104.297V311.64H108.037V309.64ZM104.297 309.64C101.352 309.64 99.4062 308.955 98.1839 307.733C96.9617 306.511 96.2768 304.565 96.2768 301.62H94.2768C94.2768 304.835 95.0219 307.399 96.7697 309.147C98.5175 310.895 101.081 311.64 104.297 311.64V309.64ZM96.2768 301.62V176H94.2768V301.62H96.2768ZM95.2768 175H71.7368V177H95.2768V175ZM70.7368 176V302.72H72.7368V176H70.7368ZM70.7368 302.72C70.7368 312.441 73.1396 319.892 78.1522 324.905C83.1648 329.917 90.6156 332.32 100.337 332.32V330.32C90.918 330.32 84.0688 327.993 79.5664 323.49C75.064 318.988 72.7368 312.139 72.7368 302.72H70.7368ZM100.337 332.32H111.777V330.32H100.337V332.32ZM111.777 332.32C121.498 332.32 128.949 329.917 133.961 324.905C138.974 319.892 141.377 312.441 141.377 302.72H139.377C139.377 312.139 137.05 318.988 132.547 323.49C128.045 327.993 121.196 330.32 111.777 330.32V332.32ZM141.377 302.72V176H139.377V302.72H141.377ZM186.802 176H187.802V175H186.802V176ZM163.262 176V175H162.262V176H163.262ZM163.262 330H162.262V331H163.262V330ZM186.802 330V331H187.802V330H186.802ZM186.802 175H163.262V177H186.802V175ZM162.262 176V330H164.262V176H162.262ZM163.262 331H186.802V329H163.262V331ZM187.802 330V176H185.802V330H187.802ZM259.369 271.7L258.395 271.924L260.369 271.698L259.369 271.7ZM237.369 176L238.344 175.776L238.166 175H237.369V176ZM209.869 176V175H208.869V176H209.869ZM209.869 330H208.869V331H209.869V330ZM230.989 330V331H231.991L231.989 329.998L230.989 330ZM230.769 226.16L231.744 225.935L229.769 226.162L230.769 226.16ZM254.749 330L253.775 330.225L253.954 331H254.749V330ZM280.269 330V331H281.269V330H280.269ZM280.269 176H281.269V175H280.269V176ZM259.149 176V175H258.147L258.149 176.002L259.149 176ZM260.344 271.476L238.344 175.776L236.395 176.224L258.395 271.924L260.344 271.476ZM237.369 175H209.869V177H237.369V175ZM208.869 176V330H210.869V176H208.869ZM209.869 331H230.989V329H209.869V331ZM231.989 329.998L231.769 226.158L229.769 226.162L229.989 330.002L231.989 329.998ZM229.795 226.385L253.775 330.225L255.724 329.775L231.744 225.935L229.795 226.385ZM254.749 331H280.269V329H254.749V331ZM281.269 330V176H279.269V330H281.269ZM280.269 175H259.149V177H280.269V175ZM258.149 176.002L258.369 271.702L260.369 271.698L260.149 175.998L258.149 176.002ZM336.543 289.52L335.551 289.643H337.535L336.543 289.52ZM322.463 176L323.455 175.877L323.347 175H322.463V176ZM298.703 176V175H297.545L297.714 176.145L298.703 176ZM321.363 330.22L320.374 330.365L320.499 331.22H321.363V330.22ZM350.183 330.22V331.22H351.047L351.172 330.365L350.183 330.22ZM372.843 176L373.832 176.145L374.001 175H372.843V176ZM350.623 176V175H349.739L349.63 175.877L350.623 176ZM337.535 289.397L323.455 175.877L321.47 176.123L335.551 289.643L337.535 289.397ZM322.463 175H298.703V177H322.463V175ZM297.714 176.145L320.374 330.365L322.352 330.075L299.692 175.855L297.714 176.145ZM321.363 331.22H350.183V329.22H321.363V331.22ZM351.172 330.365L373.832 176.145L371.854 175.855L349.194 330.075L351.172 330.365ZM372.843 175H350.623V177H372.843V175ZM349.63 175.877L335.551 289.397L337.535 289.643L351.615 176.123L349.63 175.877ZM391.395 176V175H390.395V176H391.395ZM391.395 330H390.395V331H391.395V330ZM444.195 330V331H445.195V330H444.195ZM444.195 308.66H445.195V307.66H444.195V308.66ZM414.935 308.66H413.935V309.66H414.935V308.66ZM414.935 262.24V261.24H413.935V262.24H414.935ZM442.655 262.24V263.24H443.655V262.24H442.655ZM442.655 240.9H443.655V239.9H442.655V240.9ZM414.935 240.9H413.935V241.9H414.935V240.9ZM414.935 197.34V196.34H413.935V197.34H414.935ZM443.755 197.34V198.34H444.755V197.34H443.755ZM443.755 176H444.755V175H443.755V176ZM390.395 176V330H392.395V176H390.395ZM391.395 331H444.195V329H391.395V331ZM445.195 330V308.66H443.195V330H445.195ZM444.195 307.66H414.935V309.66H444.195V307.66ZM415.935 308.66V262.24H413.935V308.66H415.935ZM414.935 263.24H442.655V261.24H414.935V263.24ZM443.655 262.24V240.9H441.655V262.24H443.655ZM442.655 239.9H414.935V241.9H442.655V239.9ZM415.935 240.9V197.34H413.935V240.9H415.935ZM414.935 198.34H443.755V196.34H414.935V198.34ZM444.755 197.34V176H442.755V197.34H444.755ZM443.755 175H391.395V177H443.755V175ZM519.408 257.4L519.028 256.475L516.307 257.591L519.144 258.365L519.408 257.4ZM465.508 176V175H464.508V176H465.508ZM465.508 330H464.508V331H465.508V330ZM489.048 330V331H490.048V330H489.048ZM489.048 268.18V267.18H488.048V268.18H489.048ZM509.508 330H508.508V331H509.508V330ZM533.048 330V331H534.048V330H533.048ZM489.048 247.72H488.048V248.72H489.048V247.72ZM489.048 196.9V195.9H488.048V196.9H489.048ZM519.787 258.325C524.228 256.503 527.775 253.85 530.192 249.83C532.599 245.828 533.828 240.57 533.828 233.64H531.828C531.828 240.35 530.636 245.212 528.478 248.8C526.331 252.37 523.167 254.777 519.028 256.475L519.787 258.325ZM533.828 233.64V204.6H531.828V233.64H533.828ZM533.828 204.6C533.828 194.879 531.425 187.428 526.412 182.415C521.4 177.403 513.949 175 504.228 175V177C513.646 177 520.496 179.327 524.998 183.83C529.5 188.332 531.828 195.181 531.828 204.6H533.828ZM504.228 175H465.508V177H504.228V175ZM464.508 176V330H466.508V176H464.508ZM465.508 331H489.048V329H465.508V331ZM490.048 330V268.18H488.048V330H490.048ZM489.048 269.18H499.608V267.18H489.048V269.18ZM499.608 269.18C502.889 269.18 505.051 269.923 506.408 271.28C507.764 272.636 508.508 274.799 508.508 278.08H510.508C510.508 274.541 509.711 271.754 507.822 269.865C505.934 267.977 503.146 267.18 499.608 267.18V269.18ZM508.508 278.08V330H510.508V278.08H508.508ZM509.508 331H533.048V329H509.508V331ZM534.048 330V277.64H532.048V330H534.048ZM534.048 277.64C534.048 271.714 533.044 267.086 530.688 263.58C528.315 260.05 524.665 257.797 519.671 256.435L519.144 258.365C523.83 259.643 527 261.68 529.028 264.695C531.071 267.734 532.048 271.906 532.048 277.64H534.048ZM508.288 205.7V238.26H510.288V205.7H508.288ZM508.288 238.26C508.288 241.305 507.553 243.361 506.222 244.669C504.887 245.981 502.771 246.72 499.608 246.72V248.72C503.044 248.72 505.768 247.919 507.624 246.096C509.483 244.269 510.288 241.595 510.288 238.26H508.288ZM499.608 246.72H489.048V248.72H499.608V246.72ZM490.048 247.72V196.9H488.048V247.72H490.048ZM489.048 197.9H500.488V195.9H489.048V197.9ZM500.488 197.9C503.313 197.9 505.209 198.58 506.408 199.78C507.607 200.979 508.288 202.875 508.288 205.7H510.288C510.288 202.585 509.538 200.081 507.822 198.365C506.106 196.65 503.602 195.9 500.488 195.9V197.9ZM608.539 251.02L607.948 251.827L607.952 251.83L608.539 251.02ZM584.779 233.64L585.369 232.833L585.361 232.827L585.352 232.821L584.779 233.64ZM598.638 231H597.638V232H598.638V231ZM621.739 231V232H622.739V231H621.739ZM568.499 251.02L569.089 250.213L569.083 250.208L569.077 250.204L568.499 251.02ZM592.259 268.4L592.859 267.6L592.849 267.593L592.259 268.4ZM577.739 270.38H578.739V269.38H577.739V270.38ZM554.859 270.38V269.38H553.859V270.38H554.859ZM609.129 250.213L585.369 232.833L584.188 234.447L607.948 251.827L609.129 250.213ZM585.352 232.821C583.211 231.322 581.696 229.885 580.7 228.117C579.708 226.356 579.179 224.173 579.179 221.1H577.179C577.179 224.407 577.749 226.954 578.957 229.098C580.161 231.235 581.946 232.878 584.205 234.459L585.352 232.821ZM579.179 221.1V203.94H577.179V221.1H579.179ZM579.179 203.94C579.179 201.115 579.859 199.219 581.058 198.02C582.257 196.82 584.153 196.14 586.979 196.14V194.14C583.864 194.14 581.36 194.89 579.644 196.605C577.928 198.321 577.179 200.825 577.179 203.94H579.179ZM586.979 196.14H589.839V194.14H586.979V196.14ZM589.839 196.14C592.664 196.14 594.56 196.82 595.759 198.02C596.958 199.219 597.638 201.115 597.638 203.94H599.638C599.638 200.825 598.889 198.321 597.173 196.605C595.457 194.89 592.953 194.14 589.839 194.14V196.14ZM597.638 203.94V231H599.638V203.94H597.638ZM598.638 232H621.739V230H598.638V232ZM622.739 231V203.06H620.739V231H622.739ZM622.739 203.06C622.739 193.446 620.334 186.052 615.351 181.068C610.367 176.084 602.973 173.68 593.359 173.68V175.68C602.664 175.68 609.46 178.006 613.936 182.482C618.413 186.958 620.739 193.754 620.739 203.06H622.739ZM593.359 173.68H583.458V175.68H593.359V173.68ZM583.458 173.68C573.737 173.68 566.287 176.083 561.274 181.095C556.261 186.108 553.859 193.559 553.859 203.28H555.859C555.859 193.861 558.186 187.012 562.688 182.51C567.19 178.007 574.04 175.68 583.458 175.68V173.68ZM553.859 203.28V224.4H555.859V203.28H553.859ZM553.859 224.4C553.859 230.422 554.638 235.378 556.822 239.803C559.008 244.232 562.553 248.034 567.92 251.836L569.077 250.204C563.884 246.526 560.609 242.958 558.615 238.917C556.619 234.872 555.859 230.258 555.859 224.4H553.859ZM567.908 251.827L591.668 269.207L592.849 267.593L569.089 250.213L567.908 251.827ZM591.659 269.2C593.821 270.822 595.342 272.264 596.34 274.011C597.33 275.743 597.859 277.869 597.859 280.94H599.859C599.859 277.631 599.287 275.137 598.077 273.019C596.875 270.916 595.096 269.278 592.859 267.6L591.659 269.2ZM597.859 280.94V302.06H599.859V280.94H597.859ZM597.859 302.06C597.859 304.885 597.178 306.776 595.958 307.974C594.734 309.175 592.783 309.86 589.839 309.86V311.86C593.054 311.86 595.613 311.115 597.359 309.401C599.109 307.684 599.859 305.175 599.859 302.06H597.859ZM589.839 309.86H586.759V311.86H589.839V309.86ZM586.759 309.86C583.814 309.86 581.863 309.175 580.639 307.974C579.419 306.776 578.739 304.885 578.739 302.06H576.739C576.739 305.175 577.488 307.684 579.238 309.401C580.984 311.115 583.543 311.86 586.759 311.86V309.86ZM578.739 302.06V270.38H576.739V302.06H578.739ZM577.739 269.38H554.859V271.38H577.739V269.38ZM553.859 270.38V302.94H555.859V270.38H553.859ZM553.859 302.94C553.859 312.548 556.205 319.944 561.162 324.93C566.12 329.917 573.517 332.32 583.239 332.32V330.32C573.82 330.32 567.027 327.993 562.58 323.52C558.132 319.046 555.859 312.252 555.859 302.94H553.859ZM583.239 332.32H593.578V330.32H583.239V332.32ZM593.578 332.32C603.3 332.32 610.75 329.917 615.763 324.905C620.776 319.892 623.179 312.441 623.179 302.72H621.179C621.179 312.139 618.851 318.988 614.349 323.49C609.847 327.993 602.997 330.32 593.578 330.32V332.32ZM623.179 302.72V277.64H621.179V302.72H623.179ZM623.179 277.64C623.179 271.287 622.344 266.326 620.127 261.978C617.91 257.631 614.363 253.999 609.125 250.21L607.952 251.83C613.054 255.521 616.327 258.929 618.345 262.887C620.363 266.844 621.179 271.453 621.179 277.64H623.179ZM643.811 176V175H642.811V176H643.811ZM643.811 330H642.811V331H643.811V330ZM696.611 330V331H697.611V330H696.611ZM696.611 308.66H697.611V307.66H696.611V308.66ZM667.351 308.66H666.351V309.66H667.351V308.66ZM667.351 262.24V261.24H666.351V262.24H667.351ZM695.071 262.24V263.24H696.071V262.24H695.071ZM695.071 240.9H696.071V239.9H695.071V240.9ZM667.351 240.9H666.351V241.9H667.351V240.9ZM667.351 197.34V196.34H666.351V197.34H667.351ZM696.171 197.34V198.34H697.171V197.34H696.171ZM696.171 176H697.171V175H696.171V176ZM642.811 176V330H644.811V176H642.811ZM643.811 331H696.611V329H643.811V331ZM697.611 330V308.66H695.611V330H697.611ZM696.611 307.66H667.351V309.66H696.611V307.66ZM668.351 308.66V262.24H666.351V308.66H668.351ZM667.351 263.24H695.071V261.24H667.351V263.24ZM696.071 262.24V240.9H694.071V262.24H696.071ZM695.071 239.9H667.351V241.9H695.071V239.9ZM668.351 240.9V197.34H666.351V240.9H668.351ZM667.351 198.34H696.171V196.34H667.351V198.34ZM697.171 197.34V176H695.171V197.34H697.171ZM696.171 175H643.811V177H696.171V175Z" fill="white"/>
</svg>
