<svg width="768" height="332" viewBox="0 0 768 332" fill="none" xmlns="http://www.w3.org/2000/svg">
<path d="M45.1057 154V155H46.1057V154H45.1057ZM45.1057 21.34V20.34H44.1057V21.34H45.1057ZM66.2257 21.34V22.34H67.2257V21.34H66.2257ZM66.2257 -1.04904e-05H67.2257V-1.00001H66.2257V-1.04904e-05ZM0.445697 -1.04904e-05V-1.00001H-0.554303V-1.04904e-05H0.445697ZM0.445697 21.34H-0.554303V22.34H0.445697V21.34ZM21.5657 21.34H22.5657V20.34H21.5657V21.34ZM21.5657 154H20.5657V155H21.5657V154ZM46.1057 154V21.34H44.1057V154H46.1057ZM45.1057 22.34H66.2257V20.34H45.1057V22.34ZM67.2257 21.34V-1.04904e-05H65.2257V21.34H67.2257ZM66.2257 -1.00001H0.445697V0.99999H66.2257V-1.00001ZM-0.554303 -1.04904e-05V21.34H1.4457V-1.04904e-05H-0.554303ZM0.445697 22.34H21.5657V20.34H0.445697V22.34ZM20.5657 21.34V154H22.5657V21.34H20.5657ZM21.5657 155H45.1057V153H21.5657V155ZM107.88 64.9H106.88V65.9H107.88V64.9ZM107.88 -1.04904e-05H108.88V-1.00001H107.88V-1.04904e-05ZM84.3396 -1.04904e-05V-1.00001H83.3396V-1.04904e-05H84.3396ZM84.3396 154H83.3396V155H84.3396V154ZM107.88 154V155H108.88V154H107.88ZM107.88 86.24V85.24H106.88V86.24H107.88ZM130.54 86.24H131.54V85.24H130.54V86.24ZM130.54 154H129.54V155H130.54V154ZM154.08 154V155H155.08V154H154.08ZM154.08 -1.04904e-05H155.08V-1.00001H154.08V-1.04904e-05ZM130.54 -1.04904e-05V-1.00001H129.54V-1.04904e-05H130.54ZM130.54 64.9V65.9H131.54V64.9H130.54ZM108.88 64.9V-1.04904e-05H106.88V64.9H108.88ZM107.88 -1.00001H84.3396V0.99999H107.88V-1.00001ZM83.3396 -1.04904e-05V154H85.3396V-1.04904e-05H83.3396ZM84.3396 155H107.88V153H84.3396V155ZM108.88 154V86.24H106.88V154H108.88ZM107.88 87.24H130.54V85.24H107.88V87.24ZM129.54 86.24V154H131.54V86.24H129.54ZM130.54 155H154.08V153H130.54V155ZM155.08 154V-1.04904e-05H153.08V154H155.08ZM154.08 -1.00001H130.54V0.99999H154.08V-1.00001ZM129.54 -1.04904e-05V64.9H131.54V-1.04904e-05H129.54ZM130.54 63.9H107.88V65.9H130.54V63.9ZM176.929 -1.04904e-05V-1.00001H175.929V-1.04904e-05H176.929ZM176.929 154H175.929V155H176.929V154ZM229.729 154V155H230.729V154H229.729ZM229.729 132.66H230.729V131.66H229.729V132.66ZM200.469 132.66H199.469V133.66H200.469V132.66ZM200.469 86.24V85.24H199.469V86.24H200.469ZM228.189 86.24V87.24H229.189V86.24H228.189ZM228.189 64.9H229.189V63.9H228.189V64.9ZM200.469 64.9H199.469V65.9H200.469V64.9ZM200.469 21.34V20.34H199.469V21.34H200.469ZM229.289 21.34V22.34H230.289V21.34H229.289ZM229.289 -1.04904e-05H230.289V-1.00001H229.289V-1.04904e-05ZM175.929 -1.04904e-05V154H177.929V-1.04904e-05H175.929ZM176.929 155H229.729V153H176.929V155ZM230.729 154V132.66H228.729V154H230.729ZM229.729 131.66H200.469V133.66H229.729V131.66ZM201.469 132.66V86.24H199.469V132.66H201.469ZM200.469 87.24H228.189V85.24H200.469V87.24ZM229.189 86.24V64.9H227.189V86.24H229.189ZM228.189 63.9H200.469V65.9H228.189V63.9ZM201.469 64.9V21.34H199.469V64.9H201.469ZM200.469 22.34H229.289V20.34H200.469V22.34ZM230.289 21.34V-1.04904e-05H228.289V21.34H230.289ZM229.289 -1.00001H176.929V0.99999H229.289V-1.00001ZM303.171 154L302.178 154.121L302.285 155H303.171V154ZM331.111 154V155H332.005L332.105 154.111L331.111 154ZM341.451 61.82L342.445 61.7085H340.457L341.451 61.82ZM351.791 154L350.797 154.111L350.897 155H351.791V154ZM379.511 154V155H380.397L380.504 154.121L379.511 154ZM398.211 -1.04904e-05L399.204 0.120533L399.34 -1.00001H398.211V-1.04904e-05ZM376.651 -1.04904e-05V-1.00001H375.747L375.656 -0.100913L376.651 -1.04904e-05ZM365.651 108.46L364.657 108.569L366.646 108.561L365.651 108.46ZM353.771 -1.04904e-05L354.765 -0.108893L354.667 -1.00001H353.771V-1.04904e-05ZM331.111 -1.04904e-05V-1.00001H330.214L330.117 -0.108675L331.111 -1.04904e-05ZM319.231 108.68L318.236 108.781L320.225 108.789L319.231 108.68ZM308.231 -1.04904e-05L309.226 -0.100711L309.135 -1.00001H308.231V-1.04904e-05ZM284.471 -1.04904e-05V-1.00001H283.342L283.478 0.120533L284.471 -1.04904e-05ZM303.171 155H331.111V153H303.171V155ZM332.105 154.111L342.445 61.9315L340.457 61.7085L330.117 153.889L332.105 154.111ZM340.457 61.9315L350.797 154.111L352.785 153.889L342.445 61.7085L340.457 61.9315ZM351.791 155H379.511V153H351.791V155ZM380.504 154.121L399.204 0.120533L397.218 -0.120554L378.518 153.879L380.504 154.121ZM398.211 -1.00001H376.651V0.99999H398.211V-1.00001ZM375.656 -0.100913L364.656 108.359L366.646 108.561L377.646 0.100892L375.656 -0.100913ZM366.645 108.351L354.765 -0.108893L352.777 0.108872L364.657 108.569L366.645 108.351ZM353.771 -1.00001H331.111V0.99999H353.771V-1.00001ZM330.117 -0.108675L318.237 108.571L320.225 108.789L332.105 0.108654L330.117 -0.108675ZM320.226 108.579L309.226 -0.100711L307.236 0.10069L318.236 108.781L320.226 108.579ZM308.231 -1.00001H284.471V0.99999H308.231V-1.00001ZM283.478 0.120533L302.178 154.121L304.164 153.879L285.464 -0.120554L283.478 0.120533ZM441.718 -1.04904e-05H442.718V-1.00001H441.718V-1.04904e-05ZM418.178 -1.04904e-05V-1.00001H417.178V-1.04904e-05H418.178ZM418.178 154H417.178V155H418.178V154ZM441.718 154V155H442.718V154H441.718ZM441.718 -1.00001H418.178V0.99999H441.718V-1.00001ZM417.178 -1.04904e-05V154H419.178V-1.04904e-05H417.178ZM418.178 155H441.718V153H418.178V155ZM442.718 154V-1.04904e-05H440.718V154H442.718ZM464.785 -1.04904e-05V-1.00001H463.785V-1.04904e-05H464.785ZM464.785 154H463.785V155H464.785V154ZM514.285 154V155H515.285V154H514.285ZM514.285 132.66H515.285V131.66H514.285V132.66ZM488.325 132.66H487.325V133.66H488.325V132.66ZM488.325 -1.04904e-05H489.325V-1.00001H488.325V-1.04904e-05ZM463.785 -1.04904e-05V154H465.785V-1.04904e-05H463.785ZM464.785 155H514.285V153H464.785V155ZM515.285 154V132.66H513.285V154H515.285ZM514.285 131.66H488.325V133.66H514.285V131.66ZM489.325 132.66V-1.04904e-05H487.325V132.66H489.325ZM488.325 -1.00001H464.785V0.99999H488.325V-1.00001ZM533.956 154H532.956V155H533.956V154ZM533.956 -1.04904e-05V-1.00001H532.956V-1.04904e-05H533.956ZM557.496 20.68V19.68H556.496V20.68H557.496ZM557.496 133.32H556.496V134.32H557.496V133.32ZM533.956 155H569.376V153H533.956V155ZM569.376 155C580.96 155 589.681 152.216 595.495 146.373C601.308 140.531 604.036 131.812 604.036 120.34H602.036C602.036 131.528 599.374 139.639 594.077 144.962C588.781 150.284 580.672 153 569.376 153V155ZM604.036 120.34V33.66H602.036V120.34H604.036ZM604.036 33.66C604.036 22.1883 601.308 13.469 595.495 7.62713C589.681 1.78433 580.96 -1.00001 569.376 -1.00001V0.99999C580.672 0.99999 588.781 3.71565 594.077 9.03785C599.374 14.361 602.036 22.4717 602.036 33.66H604.036ZM569.376 -1.00001H533.956V0.99999H569.376V-1.00001ZM532.956 -1.04904e-05V154H534.956V-1.04904e-05H532.956ZM557.496 21.68H566.076V19.68H557.496V21.68ZM566.076 21.68C570.555 21.68 573.597 22.7468 575.535 24.7333C577.478 26.7249 578.496 29.8295 578.496 34.32H580.496C580.496 29.5705 579.424 25.8551 576.967 23.3367C574.505 20.8132 570.838 19.68 566.076 19.68V21.68ZM578.496 34.32V119.68H580.496V34.32H578.496ZM578.496 119.68C578.496 124.171 577.478 127.275 575.535 129.267C573.597 131.253 570.555 132.32 566.076 132.32V134.32C570.838 134.32 574.505 133.187 576.967 130.663C579.424 128.145 580.496 124.429 580.496 119.68H578.496ZM566.076 132.32H557.496V134.32H566.076V132.32ZM558.496 133.32V20.68H556.496V133.32H558.496ZM625.471 -1.04904e-05V-1.00001H624.471V-1.04904e-05H625.471ZM625.471 154H624.471V155H625.471V154ZM678.271 154V155H679.271V154H678.271ZM678.271 132.66H679.271V131.66H678.271V132.66ZM649.011 132.66H648.011V133.66H649.011V132.66ZM649.011 86.24V85.24H648.011V86.24H649.011ZM676.731 86.24V87.24H677.731V86.24H676.731ZM676.731 64.9H677.731V63.9H676.731V64.9ZM649.011 64.9H648.011V65.9H649.011V64.9ZM649.011 21.34V20.34H648.011V21.34H649.011ZM677.831 21.34V22.34H678.831V21.34H677.831ZM677.831 -1.04904e-05H678.831V-1.00001H677.831V-1.04904e-05ZM624.471 -1.04904e-05V154H626.471V-1.04904e-05H624.471ZM625.471 155H678.271V153H625.471V155ZM679.271 154V132.66H677.271V154H679.271ZM678.271 131.66H649.011V133.66H678.271V131.66ZM650.011 132.66V86.24H648.011V132.66H650.011ZM649.011 87.24H676.731V85.24H649.011V87.24ZM677.731 86.24V64.9H675.731V86.24H677.731ZM676.731 63.9H649.011V65.9H676.731V63.9ZM650.011 64.9V21.34H648.011V64.9H650.011ZM649.011 22.34H677.831V20.34H649.011V22.34ZM678.831 21.34V-1.04904e-05H676.831V21.34H678.831ZM677.831 -1.00001H625.471V0.99999H677.831V-1.00001ZM753.483 81.4L753.104 80.4748L750.383 81.591L753.22 82.3648L753.483 81.4ZM699.583 -1.04904e-05V-1.00001H698.583V-1.04904e-05H699.583ZM699.583 154H698.583V155H699.583V154ZM723.123 154V155H724.123V154H723.123ZM723.123 92.18V91.18H722.123V92.18H723.123ZM743.583 154H742.583V155H743.583V154ZM767.123 154V155H768.123V154H767.123ZM723.123 71.72H722.123V72.72H723.123V71.72ZM723.123 20.9V19.9H722.123V20.9H723.123ZM753.863 82.3252C758.304 80.5032 761.85 77.8498 764.268 73.8304C766.675 69.8281 767.903 64.5699 767.903 57.64H765.903C765.903 64.3501 764.712 69.2119 762.554 72.7996C760.406 76.3702 757.243 78.7768 753.104 80.4748L753.863 82.3252ZM767.903 57.64V28.6H765.903V57.64H767.903ZM767.903 28.6C767.903 18.8788 765.501 11.428 760.488 6.41539C755.475 1.40275 748.025 -1.00001 738.303 -1.00001V0.99999C747.722 0.99999 754.571 3.32723 759.074 7.8296C763.576 12.332 765.903 19.1812 765.903 28.6H767.903ZM738.303 -1.00001H699.583V0.99999H738.303V-1.00001ZM698.583 -1.04904e-05V154H700.583V-1.04904e-05H698.583ZM699.583 155H723.123V153H699.583V155ZM724.123 154V92.18H722.123V154H724.123ZM723.123 93.18H733.683V91.18H723.123V93.18ZM733.683 93.18C736.965 93.18 739.127 93.9231 740.484 95.2796C741.84 96.6361 742.583 98.7986 742.583 102.08H744.583C744.583 98.5414 743.786 95.7539 741.898 93.8654C740.009 91.9769 737.222 91.18 733.683 91.18V93.18ZM742.583 102.08V154H744.583V102.08H742.583ZM743.583 155H767.123V153H743.583V155ZM768.123 154V101.64H766.123V154H768.123ZM768.123 101.64C768.123 95.7141 767.12 91.0856 764.763 87.5796C762.39 84.0501 758.741 81.7973 753.746 80.4352L753.22 82.3648C757.906 83.6427 761.076 85.6799 763.103 88.6954C765.146 91.7344 766.123 95.9059 766.123 101.64H768.123ZM742.363 29.7V62.26H744.363V29.7H742.363ZM742.363 62.26C742.363 65.3047 741.628 67.3613 740.297 68.6693C738.963 69.9807 736.846 70.72 733.683 70.72V72.72C737.12 72.72 739.844 71.9193 741.699 70.0957C743.558 68.2687 744.363 65.5952 744.363 62.26H742.363ZM733.683 70.72H723.123V72.72H733.683V70.72ZM724.123 71.72V20.9H722.123V71.72H724.123ZM723.123 21.9H734.563V19.9H723.123V21.9ZM734.563 21.9C737.389 21.9 739.285 22.5805 740.484 23.7796C741.683 24.9787 742.363 26.8746 742.363 29.7H744.363C744.363 26.5854 743.614 24.0813 741.898 22.3654C740.182 20.6495 737.678 19.9 734.563 19.9V21.9ZM245.331 271.7L244.356 271.924L246.331 271.698L245.331 271.7ZM223.331 176L224.305 175.776L224.127 175H223.331V176ZM195.831 176V175H194.831V176H195.831ZM195.831 330H194.831V331H195.831V330ZM216.951 330V331H217.953L217.951 329.998L216.951 330ZM216.731 226.16L217.705 225.935L215.731 226.162L216.731 226.16ZM240.711 330L239.736 330.225L239.915 331H240.711V330ZM266.231 330V331H267.231V330H266.231ZM266.231 176H267.231V175H266.231V176ZM245.111 176V175H244.108L244.111 176.002L245.111 176ZM246.305 271.476L224.305 175.776L222.356 176.224L244.356 271.924L246.305 271.476ZM223.331 175H195.831V177H223.331V175ZM194.831 176V330H196.831V176H194.831ZM195.831 331H216.951V329H195.831V331ZM217.951 329.998L217.731 226.158L215.731 226.162L215.951 330.002L217.951 329.998ZM215.756 226.385L239.736 330.225L241.685 329.775L217.705 225.935L215.756 226.385ZM240.711 331H266.231V329H240.711V331ZM267.231 330V176H265.231V330H267.231ZM266.231 175H245.111V177H266.231V175ZM244.111 176.002L244.331 271.702L246.331 271.698L246.111 175.998L244.111 176.002ZM312.824 176H313.824V175H312.824V176ZM289.284 176V175H288.284V176H289.284ZM289.284 330H288.284V331H289.284V330ZM312.824 330V331H313.824V330H312.824ZM312.824 175H289.284V177H312.824V175ZM288.284 176V330H290.284V176H288.284ZM289.284 331H312.824V329H289.284V331ZM313.824 330V176H311.824V330H313.824ZM382.312 266.2H383.312V265.2H382.312V266.2ZM381.652 227.92H380.652V228.92H381.652V227.92ZM404.752 227.92V228.92H405.752V227.92H404.752ZM405.192 245.96H406.192V244.96H405.192V245.96ZM369.992 245.96V244.96H368.992V245.96H369.992ZM369.992 266.2H368.992V267.2H369.992V266.2ZM381.312 266.2V301.62H383.312V266.2H381.312ZM381.312 301.62C381.312 304.565 380.627 306.511 379.404 307.733C378.182 308.955 376.236 309.64 373.292 309.64V311.64C376.507 311.64 379.071 310.895 380.819 309.147C382.566 307.399 383.312 304.835 383.312 301.62H381.312ZM373.292 309.64H368.012V311.64H373.292V309.64ZM368.012 309.64C365.067 309.64 363.121 308.955 361.899 307.733C360.676 306.511 359.992 304.565 359.992 301.62H357.992C357.992 304.835 358.737 307.399 360.484 309.147C362.232 310.895 364.796 311.64 368.012 311.64V309.64ZM359.992 301.62V204.38H357.992V301.62H359.992ZM359.992 204.38C359.992 201.435 360.676 199.489 361.899 198.267C363.121 197.045 365.067 196.36 368.012 196.36V194.36C364.796 194.36 362.232 195.105 360.484 196.853C358.737 198.601 357.992 201.165 357.992 204.38H359.992ZM368.012 196.36H372.852V194.36H368.012V196.36ZM372.852 196.36C375.677 196.36 377.568 197.04 378.765 198.26C379.967 199.484 380.652 201.436 380.652 204.38H382.652C382.652 201.164 381.906 198.606 380.193 196.86C378.475 195.11 375.966 194.36 372.852 194.36V196.36ZM380.652 204.38V227.92H382.652V204.38H380.652ZM381.652 228.92H404.752V226.92H381.652V228.92ZM405.752 227.92V203.06H403.752V227.92H405.752ZM405.752 203.06C405.752 193.452 403.405 186.056 398.448 181.07C393.49 176.083 386.093 173.68 376.372 173.68V175.68C385.79 175.68 392.583 178.007 397.03 182.48C401.478 186.954 403.752 193.748 403.752 203.06H405.752ZM376.372 173.68H364.052V175.68H376.372V173.68ZM364.052 173.68C354.33 173.68 346.88 176.083 341.867 181.095C336.854 186.108 334.452 193.559 334.452 203.28H336.452C336.452 193.861 338.779 187.012 343.281 182.51C347.784 178.007 354.633 175.68 364.052 175.68V173.68ZM334.452 203.28V302.72H336.452V203.28H334.452ZM334.452 302.72C334.452 312.441 336.854 319.892 341.867 324.905C346.88 329.917 354.33 332.32 364.052 332.32V330.32C354.633 330.32 347.784 327.993 343.281 323.49C338.779 318.988 336.452 312.139 336.452 302.72H334.452ZM364.052 332.32H376.592V330.32H364.052V332.32ZM376.592 332.32C386.313 332.32 393.764 329.917 398.776 324.905C403.789 319.892 406.192 312.441 406.192 302.72H404.192C404.192 312.139 401.864 318.988 397.362 323.49C392.86 327.993 386.01 330.32 376.592 330.32V332.32ZM406.192 302.72V245.96H404.192V302.72H406.192ZM405.192 244.96H369.992V246.96H405.192V244.96ZM368.992 245.96V266.2H370.992V245.96H368.992ZM369.992 267.2H382.312V265.2H369.992V267.2ZM450.946 240.9H449.946V241.9H450.946V240.9ZM450.946 176H451.946V175H450.946V176ZM427.406 176V175H426.406V176H427.406ZM427.406 330H426.406V331H427.406V330ZM450.946 330V331H451.946V330H450.946ZM450.946 262.24V261.24H449.946V262.24H450.946ZM473.606 262.24H474.606V261.24H473.606V262.24ZM473.606 330H472.606V331H473.606V330ZM497.146 330V331H498.146V330H497.146ZM497.146 176H498.146V175H497.146V176ZM473.606 176V175H472.606V176H473.606ZM473.606 240.9V241.9H474.606V240.9H473.606ZM451.946 240.9V176H449.946V240.9H451.946ZM450.946 175H427.406V177H450.946V175ZM426.406 176V330H428.406V176H426.406ZM427.406 331H450.946V329H427.406V331ZM451.946 330V262.24H449.946V330H451.946ZM450.946 263.24H473.606V261.24H450.946V263.24ZM472.606 262.24V330H474.606V262.24H472.606ZM473.606 331H497.146V329H473.606V331ZM498.146 330V176H496.146V330H498.146ZM497.146 175H473.606V177H497.146V175ZM472.606 176V240.9H474.606V176H472.606ZM473.606 239.9H450.946V241.9H473.606V239.9ZM559.815 330V331H560.815V330H559.815ZM559.815 197.34V196.34H558.815V197.34H559.815ZM580.935 197.34V198.34H581.935V197.34H580.935ZM580.935 176H581.935V175H580.935V176ZM515.155 176V175H514.155V176H515.155ZM515.155 197.34H514.155V198.34H515.155V197.34ZM536.275 197.34H537.275V196.34H536.275V197.34ZM536.275 330H535.275V331H536.275V330ZM560.815 330V197.34H558.815V330H560.815ZM559.815 198.34H580.935V196.34H559.815V198.34ZM581.935 197.34V176H579.935V197.34H581.935ZM580.935 175H515.155V177H580.935V175ZM514.155 176V197.34H516.155V176H514.155ZM515.155 198.34H536.275V196.34H515.155V198.34ZM535.275 197.34V330H537.275V197.34H535.275ZM536.275 331H559.815V329H536.275V331Z" fill="white"/>
</svg>
