<svg width="512" height="332" viewBox="0 0 512 332" fill="none" xmlns="http://www.w3.org/2000/svg">
<path d="M-84.8943 154V21.34H-63.7743V-1.04904e-05H-129.554V21.34H-108.434V154H-84.8943ZM-22.1204 64.9V-1.04904e-05H-45.6604V154H-22.1204V86.24H0.539609V154H24.0796V-1.04904e-05H0.539609V64.9H-22.1204ZM46.9287 -1.04904e-05V154H99.7287V132.66H70.4687V86.24H98.1887V64.9H70.4687V21.34H99.2887V-1.04904e-05H46.9287ZM173.171 154H201.111L211.451 61.82L221.791 154H249.511L268.211 -1.04904e-05H246.651L235.651 108.46L223.771 -1.04904e-05H201.111L189.231 108.68L178.231 -1.04904e-05H154.471L173.171 154ZM311.718 -1.04904e-05H288.178V154H311.718V-1.04904e-05ZM334.785 -1.04904e-05V154H384.285V132.66H358.325V-1.04904e-05H334.785ZM403.956 154H439.376C462.256 154 473.036 143 473.036 120.34V33.66C473.036 11 462.256 -1.04904e-05 439.376 -1.04904e-05H403.956V154ZM427.496 20.68H436.076C445.316 20.68 449.496 25.08 449.496 34.32V119.68C449.496 128.92 445.316 133.32 436.076 133.32H427.496V20.68ZM495.471 -1.04904e-05V154H548.271V132.66H519.011V86.24H546.731V64.9H519.011V21.34H547.831V-1.04904e-05H495.471ZM623.483 81.4C632.063 77.88 636.903 71.28 636.903 57.64V28.6C636.903 9.46 627.443 -1.04904e-05 608.303 -1.04904e-05H569.583V154H593.123V92.18H603.683C610.503 92.18 613.583 95.26 613.583 102.08V154H637.123V101.64C637.123 89.98 633.163 84.04 623.483 81.4ZM613.363 29.7V62.26C613.363 68.64 610.283 71.72 603.683 71.72H593.123V20.9H604.563C610.503 20.9 613.363 23.76 613.363 29.7ZM115.331 271.7L93.3306 176H65.8306V330H86.9506L86.7306 226.16L110.711 330H136.231V176H115.111L115.331 271.7ZM182.824 176H159.284V330H182.824V176ZM252.312 266.2V301.62C252.312 307.78 249.452 310.64 243.292 310.64H238.012C231.852 310.64 228.992 307.78 228.992 301.62V204.38C228.992 198.22 231.852 195.36 238.012 195.36H242.852C248.792 195.36 251.652 198.22 251.652 204.38V227.92H274.752V203.06C274.752 184.14 265.512 174.68 246.372 174.68H234.052C214.912 174.68 205.452 184.14 205.452 203.28V302.72C205.452 321.86 214.912 331.32 234.052 331.32H246.592C265.732 331.32 275.192 321.86 275.192 302.72V245.96H239.992V266.2H252.312ZM320.946 240.9V176H297.406V330H320.946V262.24H343.606V330H367.146V176H343.606V240.9H320.946ZM429.815 330V197.34H450.935V176H385.155V197.34H406.275V330H429.815Z" fill="white"/>
</svg>
